<svg id="HD2-AC" xmlns="http://www.w3.org/2000/svg" viewBox="0 0 126 126"><g id="HD2-AC-2" data-name="HD2-AC"><path d="M27 82v-7h19v7h49v2h7v-2h2s3 1.331 3 3h10v-1h4v6h-4v-1h-10s-1.062 3-3 3h-2v-2h-7v2h-6l-2 2h-9s.23 1.607-2 4h-2v-4H60v3h-2s-2.962 4.507-3 9a7.308 7.308 0 0 1-5-3s.593-4.247 3-6v-3h-7a19.058 19.058 0 0 1-12 9s1.245-10.406-10-11c-5.4-.285-8 5-8 5h-2v-1H6v-6s-2 .288-2-3a6.225 6.225 0 0 1 3-5h20Z" style="fill-rule:evenodd;fill:#49adc9"/><path d="M34 33h36L48 55H34V33Zm42 0L54 55h33s11-.551 11-11-11-11-11-11H76Z" style="fill:#fff;fill-rule:evenodd"/></g></svg>