<svg id="HD2-AS" xmlns="http://www.w3.org/2000/svg" viewBox="0 0 126 126"><defs><style>.cls-2{fill-rule:evenodd}.cls-2{fill:#fff}</style></defs><g id="HD2-AS-2" data-name="HD2-AS"><path id="Shape_8_copy_2" data-name="Shape 8 copy 2" d="M90 33s-6.007-8.3-18-15h43v15H90Zm2 24v14H51.533a9.01 9.01 0 0 0-6.057-6.1c3.145-1.186 6.475-3.652 6.475-8.829a9.025 9.025 0 0 0-6.456-9.178c3.14-1.189 6.456-3.655 6.456-8.822C51.951 27.466 40 28 40 28h-9V18h22s39-.032 39 39ZM51.766 76H85v16H41v-8.067c2.615-.258 9.581-1.551 10.766-7.933ZM93 96l13 16H18l13-16h62Z" style="fill-rule:evenodd;fill:#679552"/><path class="cls-2" d="M9 67h21L16 81H9V67Zm26 0L22 81h20s7-1.3 7-7-6-7-6-7h-8Z"/><path id="Shape_7_copy" data-name="Shape 7 copy" class="cls-2" d="M9 49h21L16 63H9V49Zm26 0L22 63h20s7-1.3 7-7-6-7-6-7h-8Z"/><path id="Shape_7_copy_2" data-name="Shape 7 copy 2" class="cls-2" d="M9 31h21L16 45H9V31Zm26 0L22 45h20s7-1.3 7-7-6-7-6-7h-8Z"/></g></svg>