<svg xmlns="http://www.w3.org/2000/svg" viewBox="0 0 126 126"><defs><style>.cls-2{fill:#49adc9}.cls-2,.cls-3{fill-rule:evenodd}.cls-3{fill:#fff}</style></defs><path style="fill:#49adc9" d="M79 41h9v10h-9z"/><path class="cls-2" d="M75 41H64l-10-9v14l11 4v48h39l9-9V32l-10 9H92v14H75V41Z"/><path class="cls-2" d="m54 27 11 10h37l11-10V16H54v11Z"/><path id="Shape_14_copy" data-name="Shape 14 copy" class="cls-3" d="M8 99s24 16 26 16 26-16 26-16V53s-22.07-6-26-6-26 6-26 6v46Zm34-37a3.491 3.491 0 0 1 2-1h2s2-.031 2 1v2a3.618 3.618 0 0 1-2 1h-2s-2 0-2-1v-2Zm0 6h6v21s-1.06 4-3 4-3-4-3-4V68Zm-11-6a3.491 3.491 0 0 1 2-1h2s2-.031 2 1v2a3.618 3.618 0 0 1-2 1h-2s-2 0-2-1v-2Zm0 6h6v21s-1.06 4-3 4-3-4-3-4V68Zm-11-6a3.491 3.491 0 0 1 2-1h2s2-.031 2 1v2a3.618 3.618 0 0 1-2 1h-2s-2 0-2-1v-2Zm0 6h6v21s-1.061 4-3 4-3-4-3-4V68Z"/></svg>