<svg id="HD2-ESR" xmlns="http://www.w3.org/2000/svg" viewBox="0 0 126 126"><defs><style>.cls-1{fill:#de7b6c}.cls-1,.cls-2{fill-rule:evenodd}.cls-2{fill:#fff}</style></defs><path id="queue_copy_2" data-name="queue copy 2" class="cls-1" d="m9 47 29-8 9-29 7 7v38H16Z"/><path class="cls-1" d="M75.839 15.686 78 10l17 10v14.471Zm-9.68 25.474L95 70v13l17 17 1 14-15-2-16-17H71L42.333 66.333 59 60ZM9 79l7.246-2.754L35 95H19Z"/><path class="cls-2" d="m14 69 5-5 15 15-5 5Z"/><path id="Shape_21_copy" data-name="Shape 21 copy" class="cls-2" d="m30 85 5-5 15 15-5 5Z"/><path id="Shape_21_copy_2" data-name="Shape 21 copy 2" class="cls-2" d="m33 73 5-5 15 15-5 5Z"/><path id="Shape_21_copy_3" data-name="Shape 21 copy 3" class="cls-2" d="m49 89 5-5 15 15-5 5Z"/><path id="Shape_21_copy_4" data-name="Shape 21 copy 4" class="cls-2" d="m64 19 5-5 15 15-5 5Z"/><path id="Shape_21_copy_5" data-name="Shape 21 copy 5" class="cls-2" d="m80 35 5-5 15 15-5 5Z"/><path id="Shape_21_copy_6" data-name="Shape 21 copy 6" class="cls-2" d="m68 38 5-5 15 15-5 5Z"/><path id="Shape_21_copy_7" data-name="Shape 21 copy 7" class="cls-2" d="m84 54 5-5 15 15-5 5Z"/></svg>