<svg xmlns="http://www.w3.org/2000/svg" viewBox="0 0 126 126"><defs><style>.cls-1{fill:#de7b6c}.cls-1{fill-rule:evenodd}</style></defs><path class="cls-1" d="M51 32s-7.321-1.474-11.735 2.924L47 10l7 7v6.459c-1.9 1.633-3.235 4.275-3 8.541ZM36 45s-9.12-.219-12.639 10H16l-7-8 27.692-7.639A17.955 17.955 0 0 0 36 45Z"/><path id="Shape_24_copy_2" data-name="Shape 24 copy 2" class="cls-1" d="M86 32s1.445-11.582-12-11l-.155-.065L78 10l17 10v13.055c-1.768-.79-4.557-1.355-9-1.055ZM36 72s-2.223 14.329 15 13a10.531 10.531 0 0 0 4.654 10H19L9 79l22-8.359A47.421 47.421 0 0 0 36 72Zm50 13a46.558 46.558 0 0 0 10.472-.528L112 100l1 14-15-2-16-17h-1.458A11.885 11.885 0 0 0 86 85Z"/><path id="Shape_24_copy" data-name="Shape 24 copy" d="M100.829 67.96H90.64a6.177 6.177 0 0 1 6.114 6.613 5.905 5.905 0 0 1-6.114 6.375H76.375a5.189 5.189 0 0 1 5.094 5.552 5.053 5.053 0 0 1-5.095 5.437h-8.151V92H60a5 5 0 0 1-5-5.442A5.134 5.134 0 0 1 60 81H46s-6 .212-6-6.381S46 68 46 68H36s-9-.1-9-9.371S36 49 36 49h10a6.011 6.011 0 0 1-6-6.36A6.351 6.351 0 0 1 46 36h13.167A4.527 4.527 0 0 0 60 36h-.833C57.746 35.883 55 35.078 55 30.594 55 24.547 60 25 60 25h16.375s5.095-.453 5.095 5.589c0 4.48-2.8 5.284-4.246 5.4h-.849a4.7 4.7 0 0 0 .849 0H90.64s6.114.3 6.114 6.633-6.114 6.354-6.114 6.354h10.189S110 49.338 110 58.6s-9.171 9.36-9.171 9.36Z" style="fill:#fff;fill-rule:evenodd"/></svg>