<svg xmlns="http://www.w3.org/2000/svg" viewBox="0 0 126 126"><defs><style>.cls-1{fill:#de7b6c}.cls-1,.cls-2{fill-rule:evenodd}.cls-2{fill:#fff}</style></defs><path id="queue_copy_2" data-name="queue copy 2" class="cls-1" d="m9 47 29-8 9-29 7 7v38H16Z"/><path class="cls-1" d="M98 112 82 95H63.269L64 76l-13-8H37.947L59 60l7.435-19.565L69 43v11l9 9h17v20l17 17 1 14Zm-7-84H71.16L78 10l17 10v10.286ZM9 79l12.162-4.622L29 83v12H19Z"/><path class="cls-2" d="M24 72h18l3 4v-4l5 1 9 4v18l-5-4v-6h-6l-2-2h-3v11h8l4 6H40l-7-7V81ZM65 31l17 1 3 4 1-4h4l9 5v18l-5-5v-5h-6l-1-2h-4v11h8l5 5H80l-6-6-1-12Z"/></svg>