<svg id="avion_base_copy" data-name="avion base copy" xmlns="http://www.w3.org/2000/svg" viewBox="0 0 126 126"><defs><style>.cls-1{fill:#de7b6c}.cls-1,.cls-2{fill-rule:evenodd}.cls-2{fill:#fff}</style></defs><path id="queue_copy_2" data-name="queue copy 2" class="cls-1" d="m9 47 29-8 9-29 7 7v38H16Z"/><path class="cls-1" d="M82 25v4l-8.406-7.406L78 10l17 10v17.188Zm-7 37 8 1 12 12v8l17 17 1 14-15-2-16-17h-6.25L63 83v-8L49.981 63.427 59 60l3.855-10.145ZM19 95 9 79l12.905-4.9L30 83h-4l11.294 12H19Z"/><path class="cls-2" d="M50 69v17H33l8 8h8l11 12h11V96L59 85v-8Z"/><path class="cls-2" d="m43 80-6-6h-9l5 6h10ZM38 63v9l6 6V68ZM63 38l6 7h9l-6-7h-9ZM74 37l6 6V33l-6-5v9Z"/><path class="cls-2" d="M69 50h17V34l8 8v7l12 12v10H96L85 59h-8Z"/></svg>