<svg xmlns="http://www.w3.org/2000/svg" viewBox="0 0 126 126"><defs><style>.cls-1{fill:#c9b269}.cls-1{fill-rule:evenodd}</style></defs><path id="queue_copy_2" data-name="queue copy 2" class="cls-1" d="m9 47 29-8 9-29 7 7v38H16Z"/><path class="cls-1" d="M89.256 49.117a30.982 30.982 0 0 0-26.935 2.144L78 10l17 10v20.5ZM19 95 9 79l41.8-15.886A31 31 0 0 0 52.081 95H19Zm86.082-1.918L112 100l1 14-15-2-5.98-6.354a31.122 31.122 0 0 0 13.062-12.563Z"/><path d="M99 77h6s-.517 28.043-27 28c-25.966-.042-27-27-27-27s-.922-26.81 27-27c0 0 7.629-.571 13 3l5-7 9 20H84l4-7s-15.219-8.98-26 5-1.088 27.634 6 31 26.493 8.454 31-19Z" style="fill:#fff;fill-rule:evenodd"/><path class="cls-1" d="m76 70 17.319.666a17.074 17.074 0 1 1-10.8-9.041Z"/></svg>