<svg id="HD2-EMS" xmlns="http://www.w3.org/2000/svg" viewBox="0 0 126 126"><defs><style>.cls-2{fill-rule:evenodd}.cls-2{fill:#fff}</style></defs><g id="HD2-EMS-2" data-name="HD2-EMS"><path id="Shape_9_copy" data-name="Shape 9 copy" d="M90 33s-6.007-8.3-18-15h43v15H90Zm2 24v14H44s9-22.421 9-28-9-25-9-25h9s39-.032 39 39Zm-7 35H50v-8l-6-6v-2h41v16Zm-47 9h12v-5h43l13 16H18l8.938-11H38Z" style="fill-rule:evenodd;fill:#679552"/><path class="cls-2" d="m17 50 5-20L2 56l14-1-4 20 20-26Z"/><path class="cls-2" d="M40 69v11l6 6v11H27V86l6-6V69s-1.909-4.332-3.968-9.549L38 46H24.454c-.095-.4-.179-.79-.245-1.149l1.8-9.888C28.659 27.37 33 18 33 18h7s9 19.421 9 25-9 26-9 26Z"/></g></svg>