<svg xmlns="http://www.w3.org/2000/svg" xmlns:xlink="http://www.w3.org/1999/xlink" xmlns:serif="http://www.serif.com/" width="48px" height="48px" viewBox="0 0 2400 2400" version="1.1" xml:space="preserve" style="fill-rule: evenodd; clip-rule: evenodd; stroke-linejoin: round; stroke-miterlimit: 2">
  <path d="M1200,146.42l804.125,267.777c9.446,3.146 15.573,12.278 14.902,22.211l-53.087,785.334c-0.421,6.232 1.844,12.346 6.224,16.8l238.67,242.687c7.885,8.018 8.4,20.711 1.189,29.341l-321.035,384.204c-6.099,7.298 -16.218,9.815 -25.025,6.224l-189.06,-77.093c-5.708,-2.327 -12.132,-2.136 -17.692,0.525c-5.559,2.662 -9.736,7.548 -11.502,13.453l-88.554,296.164c-2.091,6.996 -7.539,12.486 -14.52,14.631l-338.215,103.937c-4.183,1.286 -8.657,1.286 -12.84,0l-338.215,-103.937c-6.981,-2.145 -12.429,-7.635 -14.52,-14.631l-88.554,-296.164c-1.766,-5.905 -5.943,-10.791 -11.502,-13.453c-5.56,-2.661 -11.984,-2.852 -17.692,-0.525l-189.06,77.093c-8.807,3.591 -18.926,1.074 -25.025,-6.224l-321.035,-384.204c-7.211,-8.63 -6.696,-21.323 1.189,-29.341l238.67,-242.687c4.38,-4.454 6.645,-10.568 6.224,-16.8l-53.087,-785.334c-0.671,-9.933 5.456,-19.065 14.902,-22.211l804.125,-267.777Zm-9.298,1454.33l-120.696,176.333c-4.878,7.126 -3.378,16.817 3.427,22.134l44.471,34.755c6.727,5.258 16.366,4.459 22.136,-1.835l54.324,-59.252c1.448,-1.58 3.494,-2.479 5.637,-2.479c2.144,-0 4.189,0.899 5.638,2.479l54.323,59.252c5.77,6.294 15.409,7.093 22.137,1.835l44.471,-34.755c6.804,-5.317 8.305,-15.008 3.427,-22.134l-120.697,-176.333c-2.1,-3.069 -5.58,-4.904 -9.299,-4.904c-3.719,0 -7.198,1.835 -9.299,4.904Zm454.171,-441.815c-117.179,0 -212.313,95.135 -212.313,212.314c-0,117.178 95.134,212.313 212.313,212.313c117.179,-0 212.313,-95.135 212.313,-212.313c0,-117.179 -95.134,-212.314 -212.313,-212.314Zm-889.744,0c-117.178,0 -212.313,95.135 -212.313,212.314c0,117.178 95.135,212.313 212.313,212.313c117.179,-0 212.314,-95.135 212.314,-212.313c-0,-117.179 -95.135,-212.314 -212.314,-212.314Z" style="fill: #ffe900"></path>
</svg>