<svg id="Hellbomb" xmlns="http://www.w3.org/2000/svg" viewBox="0 0 126 126"><defs><style>.cls-1{fill:#fff}.cls-1{fill-rule:evenodd}</style></defs><path id="Shape_5_copy" data-name="Shape 5 copy" class="cls-1" d="M63 109H34L21 95l15 2-2-12 11 11V76l14 13s2.51-21.523 3-30c.384-6.646-4-14-4-14s-.069-.025-11 1c-2.324.218-9.131-.905-9-9s8-6 8-6 1.195-6.906 11-5c0 0-.88-5 6-5v88Zm0 0h29l13-14-15 2 2-12-11 11V76L67 89s-2.51-21.523-3-30c-.384-6.646 4-14 4-14s-.077.011 12 1c2.326.19 8.131-.905 8-9s-8-6-8-6-1.195-6.906-11-5c0 0 .88-5-6-5v88Z"/><path class="cls-1" d="M63 53c16.569 0 30 3.582 30 8s-13.431 8-30 8-30-3.582-30-8 13.432-8 30-8Zm0 4c12.15 0 22 1.791 22 4s-9.85 4-22 4-22-1.791-22-4 9.85-4 22-4Z"/><path d="M4 122v-20l20 20H4Zm118 0v-20l-20 20h20Zm0-118v20L102 4h20ZM4 4v20L24 4H4Z" style="fill:#c9b269;fill-rule:evenodd"/></svg>