<svg id="HD2-HMG" xmlns="http://www.w3.org/2000/svg" viewBox="0 0 126 126"><defs><style>.cls-2{fill-rule:evenodd}.cls-2{fill:#fff}</style></defs><g id="HD2-HMG-2" data-name="HD2-HMG"><path id="Shape_16_copy" data-name="Shape 16 copy" d="M99.866 31A54.163 54.163 0 0 0 84.65 16H121v15H99.866Zm1.691 24v14H49.99v-6H68l2-2 8-1 6-4 3-4-3-4-5-4v-2l5-4 3-4-3-4-6-4-8-1-2-2H49.99v-7h18.6s32.967-.032 32.967 39Zm-5.918 19v16h-37.2V74h37.2Zm6.761 20 10.99 16H39l10.99-16h52.41Z" style="fill-rule:evenodd;fill:#679552"/><path id="Shape_5_copy_4" data-name="Shape 5 copy 4" class="cls-2" d="M39 28v12h27.25l1.125-1.714h9l1.125-1.715h3.375L83 34l-2.125-2.571H77.5l-1.125-1.714h-9L66.25 28H39Z"/><path id="Shape_5_copy_5" data-name="Shape 5 copy 5" class="cls-2" d="M39 46v12h27.25l1.125-1.714h9l1.125-1.715h3.375L83 52l-2.125-2.571H77.5l-1.125-1.714h-9L66.25 46H39Z"/><circle cx="18" cy="24" r="9" style="fill:#fff"/><path class="cls-2" d="M5 34v40h5v37h16V74h5V34H5Z"/></g></svg>