<svg id="HD2-IM" xmlns="http://www.w3.org/2000/svg" viewBox="0 0 126 126"><defs><style>.cls-2{fill-rule:evenodd}.cls-2{fill:#fff}</style></defs><path id="Rectangle_3_copy_3" data-name="Rectangle 3 copy 3" d="M121 121H5v-20.045L22 94l20 10 21-10 21 10 20-10 17 7.192V121Z" style="fill-rule:evenodd;fill:#679552"/><path id="Shape_18_copy" data-name="Shape 18 copy" class="cls-2" d="M29 93V82h68v11l-13 6-21-10-21 10Z"/><path class="cls-2" d="M58 78 46 66V54l9-8 4-15 10 14v7l4-4 10 12-18 18v-8l4-4-6-3v-8l-7 10 3 4v9h-1ZM52 78H38v-9h5Zm28-9h8v9H71Z"/></svg>