<svg id="HD2-LC" xmlns="http://www.w3.org/2000/svg" viewBox="0 0 126 126"><g id="HD2-LC-2" data-name="HD2-LC"><path d="M118 95h-17v2h-4v6l-5 5h-5l-1 6v1h-6l-8-3-1-2 4-5v-3H64l-2-2v-3h-3l-2 3v6h-1v6h-7v-6l-7-8h-5v-4h-3v2h-7v-2H14l-2 3H8v-3H5V79h3v-3h4l2 3h13v-3h7v3h5V68h3v4h22v4h2v-7h3v9h6l4 3h23v-1h4v-3h2v3h2v-3h2v3h2v-3h2v3h3v-2h2v15Zm-64 5h-1v5h1v-5Zm0 6h-1v5h1v-5Zm24 2v4h6v-7h-3Zm11-7h-5v3h5v-3Z" style="fill-rule:evenodd;fill:#49adc9"/><path id="Rectangle_5_copy_4" data-name="Rectangle 5 copy 4" d="M94 38v-4h10v4H94Zm-4.95-12.828 7.071-7.072 2.828 2.828L91.879 28ZM81 46a10 10 0 0 1-9.541-7H23v-6h48.459A10 10 0 1 1 81 46Zm-2-33h4v10h-4V13Zm-15.993 7.852 2.855-2.864L73 25.148l-2.855 2.864Zm10.011 26-7.15 7.161-2.86-2.864 7.15-7.161ZM83 59h-4V49h4v10Zm16.012-7.929L96.179 53.9 89.1 46.828 91.929 44Z" style="fill:#fff;fill-rule:evenodd"/></g></svg>