<svg xmlns="http://www.w3.org/2000/svg" viewBox="0 0 2400 2400" xml:space="preserve" style="fill-rule:evenodd;clip-rule:evenodd;stroke-linejoin:round;stroke-miterlimit:2"><path d="m1200 146.42 804.125 267.777a21.858 21.858 0 0 1 14.902 22.211l-53.087 785.334a21.858 21.858 0 0 0 6.224 16.8l238.67 242.687c7.885 8.018 8.4 20.711 1.189 29.341l-321.035 384.204a21.859 21.859 0 0 1-25.025 6.224l-189.06-77.093a21.862 21.862 0 0 0-17.692.525 21.861 21.861 0 0 0-11.502 13.453l-88.554 296.164a21.854 21.854 0 0 1-14.52 14.631l-338.215 103.937a21.849 21.849 0 0 1-12.84 0l-338.215-103.937a21.854 21.854 0 0 1-14.52-14.631l-88.554-296.164a21.861 21.861 0 0 0-11.502-13.453 21.862 21.862 0 0 0-17.692-.525l-189.06 77.093a21.859 21.859 0 0 1-25.025-6.224L187.977 1510.57c-7.211-8.63-6.696-21.323 1.189-29.341l238.67-242.687a21.858 21.858 0 0 0 6.224-16.8l-53.087-785.334a21.858 21.858 0 0 1 14.902-22.211L1200 146.42Zm-9.298 1454.33-120.696 176.333c-4.878 7.126-3.378 16.817 3.427 22.134l44.471 34.755c6.727 5.258 16.366 4.459 22.136-1.835l54.324-59.252a7.647 7.647 0 0 1 11.275 0l54.323 59.252c5.77 6.294 15.409 7.093 22.137 1.835l44.471-34.755c6.804-5.317 8.305-15.008 3.427-22.134L1209.3 1600.75a11.268 11.268 0 0 0-18.598 0Zm454.171-441.815c-117.179 0-212.313 95.135-212.313 212.314 0 117.178 95.134 212.313 212.313 212.313 117.179 0 212.313-95.135 212.313-212.313 0-117.179-95.134-212.314-212.313-212.314Zm-889.744 0c-117.178 0-212.313 95.135-212.313 212.314 0 117.178 95.135 212.313 212.313 212.313 117.179 0 212.314-95.135 212.314-212.313 0-117.179-95.135-212.314-212.314-212.314Z" style="fill:#ffe900"/></svg>