<svg id="HD2-MGS" xmlns="http://www.w3.org/2000/svg" viewBox="0 0 126 126"><defs><style>.cls-2{fill-rule:evenodd}.cls-2{fill:#fff}</style></defs><path id="Shape_6_copy_2" data-name="Shape 6 copy 2" d="M90 33s-6.007-8.3-18-15h43v15H90Zm2 24v14H31v-2.914c1.276.006 7-.086 7-.086l1-1 7-1 1-1h3l3-4v-1l-3.127-3.913L47 56l-1-1-7-1h-5.084L34 53h5l7-1 1-1h3l3-4v-1l-3-4h-3l-1-1-6-1h-6l12-1 1-1h3l3-4v-1l-3-4h-3l-1-1-10-1h-5v-9h22s39-.032 39 39Zm-7 19v16H41V76h44Zm8 20 13 16H18l13-16h62Z" style="fill-rule:evenodd;fill:#679552"/><path class="cls-2" d="M9 57v7h26l1-1h8l1-1h3l1-1.52L48 59h-3l-1-1h-8l-1-1H9Z"/><path id="Shape_5_copy" data-name="Shape 5 copy" class="cls-2" d="M9 43v7h26l1-1h8l1-1h3l1-1.52L48 45h-3l-1-1h-8l-1-1H9Z"/><path id="Shape_5_copy_2" data-name="Shape 5 copy 2" class="cls-2" d="M9 30v7h26l1-1h8l1-1h3l1-1.52L48 32h-3l-1-1h-8l-1-1H9Z"/></svg>