<svg id="HD2-MS" xmlns="http://www.w3.org/2000/svg" viewBox="0 0 126 126"><defs><style>.cls-2{fill-rule:evenodd}.cls-2{fill:#fff}</style></defs><g id="HD2-MS-2" data-name="HD2-MS"><path id="Shape_9_copy" data-name="Shape 9 copy" d="M90 33s-6.007-8.3-18-15h43v15H90Zm2 24v14H44s9-22.421 9-28-9-25-9-25h9s39-.032 39 39Zm-7 35H50v-8l-6-6v-2h41v16Zm-47 9h12v-5h43l13 16H18l8.938-11H38Z" style="fill-rule:evenodd;fill:#679552"/><path class="cls-2" d="M40 69v11l6 6v11H36V18h4s9 19.421 9 25-9 26-9 26Z"/><path id="Shape_9_copy_2" data-name="Shape 9 copy 2" class="cls-2" d="M33 69v11l-6 6v11h10V18h-4s-9 19.421-9 25 9 26 9 26Z"/></g></svg>