<svg id="HD2-O380" xmlns="http://www.w3.org/2000/svg" viewBox="0 0 126 126"><defs><style>.cls-2{fill-rule:evenodd}.cls-2{fill:#fff}</style></defs><path id="Shape_31_copy_2" data-name="Shape 31 copy 2" d="M98.924 120c-.329-11.02-2-19.88-4.454-27h15.288A53.738 53.738 0 0 1 117 120H98.924ZM96 89V77.287A54.06 54.06 0 0 1 107.9 90H95.047ZM77 72.586V89l.947 1H65v-4.607L73 77v-6.943a33.58 33.58 0 0 1 4 2.529ZM35.5 93H62v27H30.912A85.548 85.548 0 0 1 35.5 93ZM54 70.062V77l8 8.449V90H36.681C40.1 82 45.5 74.551 54 70.062ZM18.1 90a54.074 54.074 0 0 1 17.565-16.544l4.709 4.5A50.98 50.98 0 0 0 33.635 90H18.1Zm9.977 30H9a53.732 53.732 0 0 1 7.242-27h16.281c-2.446 7.12-4.123 15.98-4.447 27ZM65 120V93h15.788l5.681 6 5.221-5.477A85.992 85.992 0 0 1 96.089 120H65Z" style="fill-rule:evenodd;fill:#de7b6c"/><path class="cls-2" d="m35 68 6.5 7 6.5-7V46s3-.834 3-3V26H32v17.117A3.032 3.032 0 0 0 35 46v22ZM33 17a.961.961 0 0 0-1 1v1a.961.961 0 0 0 1 1h17a.952.952 0 0 0 1-1v-1a1 1 0 0 0-1-1H33Z"/><path id="Shape_29_copy" data-name="Shape 29 copy" class="cls-2" d="m57 76 6.5 7 6.5-7V54s3-.834 3-3V34H54v17.117A3.032 3.032 0 0 0 57 54v22Z"/><path id="Shape_30_copy" data-name="Shape 30 copy" class="cls-2" d="M55 25a.961.961 0 0 0-1 1v1a.961.961 0 0 0 1 1h17a.952.952 0 0 0 1-1v-1a1 1 0 0 0-1-1H55Z"/><path id="Shape_29_copy_2" data-name="Shape 29 copy 2" class="cls-2" d="m80 88 6.5 7 6.5-7V66s3-.834 3-3V46H77v17.117A3.032 3.032 0 0 0 80 66v22Z"/><path id="Shape_30_copy_2" data-name="Shape 30 copy 2" class="cls-2" d="M78 37a.961.961 0 0 0-1 1v1a.961.961 0 0 0 1 1h17a.952.952 0 0 0 1-1v-1a1 1 0 0 0-1-1H78Z"/></svg>