<svg id="HD2-OL" xmlns="http://www.w3.org/2000/svg" viewBox="0 0 126 126"><defs><style>.cls-3{fill-rule:evenodd}.cls-2,.cls-3{fill:#fff}</style></defs><g id="HD2-OL-2" data-name="HD2-OL"><path d="M98.924 120c-.329-11.02-2-19.88-4.454-27h15.288A53.738 53.738 0 0 1 117 120H98.924ZM77.988 69.557c.155-.417.294-.84.414-1.272A54.015 54.015 0 0 1 107.9 90H93.357c-4.183-10.409-10.051-16.68-15.369-20.443Zm-29.769.568C43.115 73.937 37.613 80.088 33.635 90H18.1a54.006 54.006 0 0 1 29.5-21.716 15.907 15.907 0 0 0 .62 1.841ZM28.076 120H9a53.732 53.732 0 0 1 7.242-27h16.281c-2.446 7.12-4.123 15.98-4.447 27ZM63 174a53.726 53.726 0 0 1-32.644-11h65.288A53.726 53.726 0 0 1 63 174Zm33.089-54H65V93h26.509a85.481 85.481 0 0 1 4.58 27Zm-5.762-30H65V79.862A15.979 15.979 0 0 0 76.663 72.3C83.1 76.822 87.432 83.213 90.327 90ZM62 120H30.912A85.548 85.548 0 0 1 35.5 93H62v27ZM36.681 90a41.027 41.027 0 0 1 12.961-17.2A15.972 15.972 0 0 0 62 79.95V90H36.681Z" style="fill-rule:evenodd;fill:#de7b6c"/><circle class="cls-2" cx="63" cy="64" r="12"/><path class="cls-2" d="M35 62h12v3H35zM79 62h12v3H79z"/><path id="Rectangle_8_copy" data-name="Rectangle 8 copy" class="cls-3" d="m73.134 51.5 8.485-8.485 2.121 2.121-8.485 8.485Z"/><path id="Rectangle_8_copy_2" data-name="Rectangle 8 copy 2" class="cls-3" d="m52.991 51.8-8.785-8.785-2.2 2.2L50.794 54Z"/><path class="cls-2" d="M62 13h2v45h-2z"/></g></svg>