<svg id="Orbital_Illumination_Flare" data-name="Orbital Illumination Flare" xmlns="http://www.w3.org/2000/svg" viewBox="0 0 126 126"><defs><style>.cls-3{fill-rule:evenodd}.cls-2,.cls-3{fill:#fff}</style></defs><path d="M4 122v-20l20 20H4Zm118 0v-20l-20 20h20Zm0-118v20L102 4h20ZM4 4v20L24 4H4Z" style="fill-rule:evenodd;fill:#c9b269"/><circle class="cls-2" cx="63" cy="63" r="12"/><path id="left_middle_copy" data-name="left middle copy" class="cls-3" d="m43.818 84.7-.707-.707-1.411-1.416-.71-.707 9.192-9.192.707.707L52.3 74.8l.707.707Z"/><path id="left_middle_copy_2" data-name="left middle copy 2" class="cls-3" d="m85.01 82.182-.707.707-1.414 1.411-.707.707-9.192-9.189.707-.707 1.414-1.411.707-.707Z"/><path id="left_middle_copy_3" data-name="left middle copy 3" class="cls-3" d="m43.818 41.295-.707.705-1.411 1.412-.707.706 9.192 9.174.707-.706 1.408-1.411.707-.706Z"/><path id="left_middle_copy_4" data-name="left middle copy 4" class="cls-3" d="m85.01 43.812-.71-.705-1.411-1.407-.707-.706-9.192 9.17.71.705 1.414 1.411.707.706Z"/><g id="left_middle" data-name="left middle"><path id="left_middle-2" data-name="left middle" class="cls-3" d="M15 65v-4h32v4H15Z"/></g><g id="right_middle" data-name="right middle"><path class="cls-2" d="M79 61h32v3H79z"/><path id="Rectangle_8_copy_3" data-name="Rectangle 8 copy 3" class="cls-2" d="M79 62h32v3H79z"/></g><g id="bottom"><path id="left_middle-3" data-name="left middle" class="cls-2" d="M61 79h3v21h-3z"/><path id="left_middle-4" data-name="left middle" class="cls-2" d="M62 79h3v21h-3z"/></g><g id="top"><path class="cls-2" d="M61 26h3v21h-3z"/><path id="Rectangle_8_copy_3-2" data-name="Rectangle 8 copy 3" class="cls-2" d="M62 26h3v21h-3z"/></g></svg>