<svg id="HD2-OWB" xmlns="http://www.w3.org/2000/svg" viewBox="0 0 126 126"><defs><style>.cls-3{fill-rule:evenodd}.cls-2,.cls-3{fill:#fff}</style></defs><g id="HD2-OSS"><path id="base_copy" data-name="base copy" d="M94.47 93h15.288A53.738 53.738 0 0 1 117 120H98.924c-.329-11.02-2.004-19.88-4.454-27ZM74.191 67.2A53.991 53.991 0 0 1 107.9 90H93.357c-5.213-12.973-13.046-19.528-19.166-22.8ZM90.327 90H65V67c13.307 3.34 20.946 12.73 25.327 23ZM35.5 93H62v27H30.912A85.548 85.548 0 0 1 35.5 93ZM62 67v23H36.681C41.065 79.73 48.7 70.343 62 67ZM33.635 90H18.1a53.974 53.974 0 0 1 35.28-23.1c-6.199 3.159-14.367 9.7-19.745 23.1Zm-5.559 30H9a53.732 53.732 0 0 1 7.242-27h16.281c-2.446 7.12-4.123 15.98-4.447 27Zm67.569 43a53.939 53.939 0 0 1-65.289 0h65.288Zm-4.136-70a85.481 85.481 0 0 1 4.58 27H65V93h26.509Z" style="fill-rule:evenodd;fill:#de7b6c"/><path class="cls-2" d="M62 14h3v50h-3zM71 14h3v3h-3zM71 24h3v3h-3zM71 33h3v3h-3zM71 42h3v3h-3zM71 51h3v3h-3zM71 60h3v3h-3z"/><path class="cls-3" d="m49.629 58.284 3.967-.517.776 5.95-3.967.517Z"/><path id="Rectangle_17_copy" data-name="Rectangle 17 copy" class="cls-3" d="m39.134 60.812 3.783-1.3 1.949 5.675-3.783 1.3Z"/><path id="Rectangle_17_copy_2" data-name="Rectangle 17 copy 2" class="cls-3" d="m28.679 66.6 3.34-2.2 3.3 5.01-3.34 2.2Z"/><path id="Rectangle_17_copy_3" data-name="Rectangle 17 copy 3" class="cls-3" d="m20.5 73.147 2.943-2.709 4.057 4.415-2.94 2.709Z"/></g></svg>