<svg id="HD2-O120" xmlns="http://www.w3.org/2000/svg" viewBox="0 0 126 126"><defs><style>.cls-2{fill-rule:evenodd}.cls-2{fill:#fff}</style></defs><path d="M98.924 120c-.329-11.02-2-19.88-4.454-27h15.288A53.738 53.738 0 0 1 117 120H98.924Zm-7.872-35.01c2.451-.195 4.659-3.241 6.129-6.767A54.085 54.085 0 0 1 107.9 90H93.357a56.35 56.35 0 0 0-2.305-5.01Zm-7.918-11.046a37.245 37.245 0 0 0-8.943-6.74 53.728 53.728 0 0 1 8.67 2.62c.029 1.328.108 2.746.273 4.12Zm1.842 6.569a8.846 8.846 0 0 0 2.264 3.4A50.141 50.141 0 0 1 90.327 90H65v-5.249c.3-.216.623-.458 1-.751 2.41-1.874 4.661-6.256 4.661-6.256s.377-4.094.492-8.593a34.972 34.972 0 0 1 13.823 11.362ZM35.5 93H62v27H30.912A85.548 85.548 0 0 1 35.5 93ZM56 69.088V77s3.4 5.167 5 7a8.555 8.555 0 0 0 1 .99V90H36.681C40.356 81.39 46.333 73.416 56 69.088Zm-11.129.086A53.815 53.815 0 0 1 53.38 66.9a37.04 37.04 0 0 0-9.475 6.992 30.477 30.477 0 0 0 .966-4.718ZM18.1 90a54.045 54.045 0 0 1 11.631-12.5c1.284 3.63 3.312 7.427 6.2 7.485a56.352 56.352 0 0 0-2.3 5.01H18.1Zm9.977 30H9a53.732 53.732 0 0 1 7.242-27h16.281c-2.446 7.12-4.123 15.98-4.447 27ZM65 93h26.509a85.481 85.481 0 0 1 4.58 27H65V93Zm-2 81a53.726 53.726 0 0 1-32.644-11h65.288A53.726 53.726 0 0 1 63 174Z" style="fill-rule:evenodd;fill:#de7b6c"/><path class="cls-2" d="m32 75 3 6s1.344 2.25 3 0a28.687 28.687 0 0 0 3-6V59s2-.528 2-2V37H30v20a1.858 1.858 0 0 0 2 2v16Zm-1-47a.979.979 0 0 0-1 1v1a.931.931 0 0 0 1 1h11a1.007 1.007 0 0 0 1-1v-1a.954.954 0 0 0-1-1H31Z"/><path id="Shape_5_copy" data-name="Shape 5 copy" class="cls-2" d="m59 75 3 6s1.344 2.25 3 0a28.687 28.687 0 0 0 3-6V59s2-.528 2-2V37H57v20a1.858 1.858 0 0 0 2 2v16Zm-1-47a.979.979 0 0 0-1 1v1a.931.931 0 0 0 1 1h11a1.007 1.007 0 0 0 1-1v-1a.954.954 0 0 0-1-1H58Z"/><path id="Shape_5_copy_2" data-name="Shape 5 copy 2" class="cls-2" d="m86 75 3 6s1.344 2.25 3 0a28.687 28.687 0 0 0 3-6V59s2-.528 2-2V37H84v20a1.858 1.858 0 0 0 2 2v16Zm-1-47a.979.979 0 0 0-1 1v1a.931.931 0 0 0 1 1h11a1.007 1.007 0 0 0 1-1v-1a.954.954 0 0 0-1-1H85Z"/></svg>