<svg id="HD2-EGB" xmlns="http://www.w3.org/2000/svg" viewBox="0 0 126 126"><defs><style>.cls-2{fill:#fff}</style></defs><path d="M98.924 120c-.329-11.02-2-19.88-4.454-27h15.288A53.738 53.738 0 0 1 117 120H98.924ZM79 70.295v-1.837A54.024 54.024 0 0 1 107.9 90H93.357C89.438 80.248 84.039 74.124 79 70.295ZM57 90H36.681A42.05 42.05 0 0 1 48 74.1V84h9v6Zm-23.365 0H18.1A54.008 54.008 0 0 1 48 68.157v2.137C42.958 74.118 37.556 80.23 33.635 90Zm-5.559 30H9a53.732 53.732 0 0 1 7.242-27h16.281c-2.446 7.12-4.123 15.98-4.447 27ZM63 174a53.726 53.726 0 0 1-32.644-11h65.288A53.726 53.726 0 0 1 63 174Zm33.089-54H65V93h26.509a85.481 85.481 0 0 1 4.58 27ZM35.5 93H62v27H30.912A85.548 85.548 0 0 1 35.5 93Zm54.828-3H70v-6h9v-9.911A42.031 42.031 0 0 1 90.327 90Z" style="fill:#de7b6c;fill-rule:evenodd"/><path class="cls-2" d="M53 24h3v15h-3z"/><path id="Rectangle_1_copy" data-name="Rectangle 1 copy" class="cls-2" d="M53 44h3v15h-3z"/><path id="Rectangle_1_copy_2" data-name="Rectangle 1 copy 2" class="cls-2" d="M53 64h3v15h-3z"/><path id="Rectangle_1_copy_3" data-name="Rectangle 1 copy 3" class="cls-2" d="M62 15h3v13h-3z"/><path id="Rectangle_1_copy_4" data-name="Rectangle 1 copy 4" class="cls-2" d="M62 31h3v15h-3z"/><path id="Rectangle_1_copy_5" data-name="Rectangle 1 copy 5" class="cls-2" d="M62 51h3v16h-3z"/><path id="Rectangle_1_copy_9" data-name="Rectangle 1 copy 9" class="cls-2" d="M62 71h3v16h-3z"/><path id="Rectangle_1_copy_6" data-name="Rectangle 1 copy 6" class="cls-2" d="M71 24h3v15h-3z"/><path id="Rectangle_1_copy_7" data-name="Rectangle 1 copy 7" class="cls-2" d="M71 44h3v15h-3z"/><path id="Rectangle_1_copy_8" data-name="Rectangle 1 copy 8" class="cls-2" d="M71 64h3v15h-3z"/></svg>