<svg id="HD2-OGS" xmlns="http://www.w3.org/2000/svg" viewBox="0 0 126 126"><defs><style>.cls-2{fill-rule:evenodd}.cls-2{fill:#fff}</style></defs><path d="M98.924 120c-.329-11.02-2-19.88-4.454-27h15.288A53.738 53.738 0 0 1 117 120H98.924Zm-8.236-35.688 6.267-6.267A54.084 54.084 0 0 1 107.9 90H93.357a55.763 55.763 0 0 0-2.669-5.688Zm-61.565-6.337 6.97 6.725a56.09 56.09 0 0 0-2.458 5.3H18.1a54.051 54.051 0 0 1 11.023-12.025ZM28.076 120H9a53.732 53.732 0 0 1 7.242-27h16.281c-2.446 7.12-4.123 15.98-4.447 27ZM63 174a53.726 53.726 0 0 1-32.644-11h65.288A53.726 53.726 0 0 1 63 174Zm33.089-54H65V93h.111L74 101l8-8h9.509a85.481 85.481 0 0 1 4.58 27ZM35.5 93h9.2l8.3 8 8.889-8H62v27H30.912A85.548 85.548 0 0 1 35.5 93Zm1.182-3c.469-1.1.984-2.186 1.531-3.259L41.593 90h-4.912Zm51.936-3.618q.926 1.782 1.71 3.618H85Z" style="fill-rule:evenodd;fill:#de7b6c"/><path class="cls-2" d="m75.724 79.007 3.046 3 7.108-7 5.077 5L73.693 97l-5.077-5 7.107-7-3.046-3-5.077 4H59l-5-4-3 3 7 7-5 5-17-17 5-5 7 7 3-3-18-17V41s4.16.03 7 0c-.46-23.075 22-24 22-24l1.532-.028v.041l1.022.018s22.806.925 22.339 23.991c2.883.03 7.108 0 7.108 0v20.992ZM71.5 77a2.5 2.5 0 1 0-2.5-2.5 2.5 2.5 0 0 0 2.5 2.5Zm0-9a2.5 2.5 0 1 0-2.5-2.5 2.5 2.5 0 0 0 2.5 2.5Zm-8 14a2.5 2.5 0 1 0-2.5-2.5 2.5 2.5 0 0 0 2.5 2.5Zm0-9a2.5 2.5 0 1 0-2.5-2.5 2.5 2.5 0 0 0 2.5 2.5Zm0-10a2.5 2.5 0 1 0-2.5-2.5 2.5 2.5 0 0 0 2.5 2.5Zm-8 14a2.5 2.5 0 1 0-2.5-2.5 2.5 2.5 0 0 0 2.5 2.5Zm0-9a2.5 2.5 0 1 0-2.5-2.5 2.5 2.5 0 0 0 2.5 2.5ZM82 41H45v14l8 6 9-7h2.57l9.23 7 8.2-6V41Z"/></svg>