<svg id="HD2-OSS" xmlns="http://www.w3.org/2000/svg" viewBox="0 0 126 126"><g id="HD2-OSS-2" data-name="HD2-OSS"><path id="base_copy" data-name="base copy" d="M94.47 93h15.288A53.738 53.738 0 0 1 117 120H98.924c-.329-11.02-2.004-19.88-4.454-27ZM74.191 67.2A53.991 53.991 0 0 1 107.9 90H93.357c-5.213-12.973-13.046-19.528-19.166-22.8ZM90.327 90H65V67c13.307 3.34 20.946 12.73 25.327 23ZM35.5 93H62v27H30.912A85.548 85.548 0 0 1 35.5 93ZM62 67v23H36.681C41.065 79.73 48.7 70.343 62 67ZM33.635 90H18.1a53.974 53.974 0 0 1 35.28-23.1c-6.199 3.159-14.367 9.7-19.745 23.1Zm-5.559 30H9a53.732 53.732 0 0 1 7.242-27h16.281c-2.446 7.12-4.123 15.98-4.447 27Zm67.569 43a53.939 53.939 0 0 1-65.289 0h65.288Zm-4.136-70a85.481 85.481 0 0 1 4.58 27H65V93h26.509Z" style="fill-rule:evenodd;fill:#de7b6c"/><path id="Shape_33_copy" data-name="Shape 33 copy" d="M106 83S91.263 63.5 63 64.04a.191.191 0 0 1-.094-.04C34.565 63.509 19 84 19 84s-4.933-15.044 1-22c7.328-8.591 19.243-5.135 21-5 2.958.228 2-1 2-1s-2.795-3.617-7-3c-9.521 1.4-5-6-5-6 5.867-9.758 19.618-6.086 23.182-5.264 1.307.3.818-.736.818-.736s-5.888-2.254-6-5c-.4-9.743 14-8 14-8h.531v.075c2.588-.2 13.746-.565 13.4 8.031-.111 2.739-5.972 4.988-5.972 4.988s-.486 1.034.814.734c3.546-.819 17.227-4.483 23.071 5.252 0 0 4.5 7.381-4.976 5.986-4.185-.616-6.967 2.993-6.967 2.993s-.954 1.225 1.99 1c1.748-.135 13.608-3.583 20.9 4.988C111.7 68.984 106 83 106 83Z" style="fill:#fff;fill-rule:evenodd"/></g></svg>