<svg id="HD2-OES" xmlns="http://www.w3.org/2000/svg" viewBox="0 0 126 126"><defs><style>.cls-2{fill-rule:evenodd}.cls-2{fill:#fff}</style></defs><g id="HD2-OES-2" data-name="HD2-OES"><path d="M98.924 120c-.329-11.02-2-19.88-4.454-27h15.288A53.738 53.738 0 0 1 117 120H98.924ZM74.191 67.2A53.991 53.991 0 0 1 107.9 90H93.357c-5.213-12.973-13.046-19.528-19.166-22.8ZM33.635 90H18.1a53.974 53.974 0 0 1 35.28-23.1c-6.199 3.159-14.367 9.7-19.745 23.1Zm-5.559 30H9a53.732 53.732 0 0 1 7.242-27h16.281c-2.446 7.12-4.123 15.98-4.447 27ZM63 174a53.726 53.726 0 0 1-32.644-11h65.288A53.726 53.726 0 0 1 63 174Zm33.089-54H65V93h26.509a85.481 85.481 0 0 1 4.58 27Zm-5.762-30H65v-3l7.619-17.143C81.348 74.323 86.863 81.88 90.327 90ZM62 120H30.912A85.548 85.548 0 0 1 35.5 93H62v27Zm0-53v23H36.681C41.065 79.73 48.7 70.343 62 67Z" style="fill-rule:evenodd;fill:#de7b6c"/><path class="cls-2" d="m65 79 16-42-16 5V12L49 55l16-5v29Z"/><path class="cls-2" d="m33.077 65.723 3.125 5a52.042 52.042 0 0 0-9.158 6.32l-3.716-3.716a41.661 41.661 0 0 1 9.749-7.604ZM46.9 60.4l2 5.342a54.8 54.8 0 0 0-10.218 3.707L35.745 64.3A50.936 50.936 0 0 1 46.9 60.4ZM61 58.94v5.127A54.166 54.166 0 0 0 52 65l-1.626-5.263A63.885 63.885 0 0 1 61 58.94Zm18.283 2.136a60.157 60.157 0 0 1 10.909 3.6l-2.6 4.333a51.217 51.217 0 0 0-10.117-3.438L78.667 62Zm23.433 12.208L99 77a31.752 31.752 0 0 0-8.822-6.683l2.945-4.208a35.432 35.432 0 0 1 9.593 7.175Z"/></g></svg>