<svg id="HD2-OAS" xmlns="http://www.w3.org/2000/svg" viewBox="0 0 126 126"><defs><style>.cls-1{fill:#de7b6c}.cls-1,.cls-3{fill-rule:evenodd}.cls-2,.cls-3{fill:#fff}</style></defs><g id="HD2-OAS-2" data-name="HD2-OAS"><path class="cls-1" d="M98.924 120c-.329-11.02-2-19.88-4.454-27h15.288A53.738 53.738 0 0 1 117 120H98.924ZM86.182 77.406l-3.011-7.458A54.054 54.054 0 0 1 107.9 90H93.357a50.578 50.578 0 0 0-7.175-12.594ZM90.327 90H69V68.261c.319.12.622.256.934.383l6.2 15.365 8.705-3.681A47.072 47.072 0 0 1 90.327 90Zm-48.162-9.669 8.7 3.678 6.2-15.361c.312-.128.616-.264.936-.384V90h-21.32a47.093 47.093 0 0 1 5.484-9.669ZM33.635 90H18.1a54.027 54.027 0 0 1 25.912-20.506l-3.174 7.863A50.523 50.523 0 0 0 33.635 90Zm-5.559 30H9a53.732 53.732 0 0 1 7.242-27h16.281c-2.446 7.12-4.123 15.98-4.447 27ZM63 174a53.726 53.726 0 0 1-32.644-11h65.288A53.726 53.726 0 0 1 63 174Zm28.509-81a85.481 85.481 0 0 1 4.58 27H65V93h26.509ZM35.5 93H62v27H30.912A85.548 85.548 0 0 1 35.5 93Z"/><path class="cls-2" d="M62 49h3v4h-3z"/><path id="Rectangle_5_copy" data-name="Rectangle 5 copy" class="cls-2" d="M62 58h3v4h-3z"/><path id="Rectangle_5_copy_2" data-name="Rectangle 5 copy 2" class="cls-2" d="M62 67h3v4h-3z"/><path id="Rectangle_5_copy_3" data-name="Rectangle 5 copy 3" class="cls-2" d="M62 76h3v4h-3z"/><path id="Rectangle_5_copy_4" data-name="Rectangle 5 copy 4" class="cls-2" d="M62 85h3v4h-3z"/><path id="Rectangle_5_copy_5" data-name="Rectangle 5 copy 5" class="cls-3" d="m55.92 47.829 2.858.913-1.218 3.81-2.86-.913Z"/><path id="Rectangle_5_copy_6" data-name="Rectangle 5 copy 6" class="cls-3" d="m53.18 56.4 2.858.913-1.218 3.81-2.858-.913Z"/><path id="Rectangle_5_copy_7" data-name="Rectangle 5 copy 7" class="cls-3" d="m50.44 64.974 2.86.913-1.22 3.813-2.858-.913Z"/><path id="Rectangle_5_copy_8" data-name="Rectangle 5 copy 8" class="cls-3" d="m47.44 72.974 2.86.913-1.22 3.813-2.858-.913Z"/><path id="Rectangle_5_copy_9" data-name="Rectangle 5 copy 9" class="cls-3" d="m68.426 48.547 2.836-.978 1.3 3.782-2.836.978Z"/><path id="Rectangle_5_copy_10" data-name="Rectangle 5 copy 10" class="cls-3" d="m71.36 57.055 2.836-.978 1.3 3.782-2.836.978Z"/><path id="Rectangle_5_copy_11" data-name="Rectangle 5 copy 11" class="cls-3" d="m74.293 65.564 2.836-.978 1.3 3.782-2.836.978Z"/><path id="Rectangle_5_copy_12" data-name="Rectangle 5 copy 12" class="cls-3" d="m76.676 73.769 2.836-.978 1.3 3.782-2.836.978Z"/><path class="cls-3" d="M70.769 32.625 76 37l-6.269-.25L71 43l-5-4-2.5 6-2.5-6-5 4 1.269-6.25L51 37l5.231-4.375L51 29h6l-1-6 6 4V12h3v15l6-4-1 6h6Z"/></g></svg>