<svg id="Prospecting_Drill" data-name="Prospecting Drill" xmlns="http://www.w3.org/2000/svg" viewBox="0 0 126 126"><path d="M4 122v-20l20 20H4Zm118 0v-20l-20 20h20Zm0-118v20L102 4h20ZM4 4v20L24 4H4Z" style="fill-rule:evenodd;fill:#c9b269"/><path id="Rectangle_1_copy_7" data-name="Rectangle 1 copy 7" d="M36.02 50.815C36.106 50.319 36.564 49 39 49h20V14a1.874 1.874 0 0 1 1.8-2h4.4a1.874 1.874 0 0 1 1.8 2v35h20c3 0 3 2 3 2v3l-4.336 10.117Zm33.5 50.976-14.73-3.947-4.773-11.138 23.291 6.241ZM63 117l-6.2-14.477 11.131 2.982ZM48.012 82.028 43.239 70.89l35.452 9.5-3.791 8.843ZM36.46 55.074l47.612 12.758-3.79 8.843-39.048-10.463Z" style="fill:#fff;fill-rule:evenodd"/></svg>