<svg id="Reinforce" xmlns="http://www.w3.org/2000/svg" viewBox="0 0 126 126"><defs><style>.cls-1{fill:#fff}.cls-1{fill-rule:evenodd}</style></defs><path id="Shape_1_copy" data-name="Shape 1 copy" class="cls-1" d="M85 108H23l-8-9V89h17l10 9h24l10-9h17v10Z"/><path class="cls-1" d="M54 94 31 77V57h4c0-18.7 19-19 19-19s19 .3 19 19h4v20Zm14-37H40v14h7l3-4h8l3 4h7V57Z"/><path id="Rectangle_1_copy" data-name="Rectangle 1 copy" class="cls-1" d="M116 42H98v17h-5V42H76v-5h17V19h5v18h18v5Z"/><path d="M4 122v-20l20 20H4Zm118 0v-20l-20 20h20Zm0-118v20L102 4h20ZM4 4v20L24 4H4Z" style="fill:#c9b269;fill-rule:evenodd"/></svg>