<svg id="Resupply" xmlns="http://www.w3.org/2000/svg" viewBox="0 0 126 126"><defs><style>.cls-1{fill:#c9b269}.cls-1,.cls-2{fill-rule:evenodd}.cls-2{fill:#fff}</style></defs><path class="cls-1" d="M82 52V24h30L96.372 52H82Zm-50.372 0L16 24h30v28H31.628Zm44.651 36L64 110 51.721 88h24.558Z"/><path class="cls-2" d="M34 84V56h9v10h10V56h9v28H34ZM66 84V56h9v10h10V56h9v28H66ZM50 52V24h9v10h10V24h9v28H50Z"/><path class="cls-1" d="M5 123v-20l20 20H5Zm118 0v-20l-20 20h20Zm0-118v20L103 5h20ZM5 5v20L25 5H5Z"/></svg>