<svg id="HD2-OPS" xmlns="http://www.w3.org/2000/svg" viewBox="0 0 126 126"><defs><style>.cls-1{fill:#c9b269}.cls-1,.cls-2{fill-rule:evenodd}.cls-2{fill:#fff}</style></defs><path id="Shape_4_copy" data-name="Shape 4 copy" class="cls-1" d="M100.727 119h-1.8c-.329-11.02-2-19.88-4.454-27h15.288a53.845 53.845 0 0 1 5.306 12.663ZM74.191 66.2A53.991 53.991 0 0 1 107.9 89H93.357c-5.213-12.973-13.046-19.528-19.166-22.8ZM90.327 89H65V66c13.307 3.34 20.946 12.73 25.327 23ZM35.5 92H62v27H30.912A85.548 85.548 0 0 1 35.5 92ZM62 66v23H36.681C41.065 78.73 48.7 69.343 62 66ZM33.635 89H18.1a53.974 53.974 0 0 1 35.28-23.1c-6.199 3.159-14.367 9.7-19.745 23.1Zm-1.112 3c-2.447 7.12-4.118 15.98-4.447 27h-2.894l-14.267-14.267A53.836 53.836 0 0 1 16.242 92h16.281ZM65 92h26.509a85.481 85.481 0 0 1 4.58 27H65V92Z"/><path id="Shape_4_copy_3" data-name="Shape 4 copy 3" class="cls-1" d="M4 122v-20l20 20H4Zm118 0v-20l-20 20h20Zm0-118v20L102 4h20ZM4 4v20L24 4H4Z"/><path class="cls-2" d="M54 38V10H29l18 28h7ZM73 10h25L80 38h-7V10Z"/><path class="cls-2" d="M59 10h9v33h9L64 63 50 43h9"/></svg>