<svg id="Seismic_Probe" data-name="Seismic Probe" xmlns="http://www.w3.org/2000/svg" viewBox="0 0 126 126"><defs><style>.cls-2{fill-rule:evenodd}.cls-2{fill:#fff}</style></defs><path d="M4 122v-20l20 20H4Zm118 0v-20l-20 20h20Zm0-118v20L102 4h20ZM4 4v20L24 4H4Z" style="fill-rule:evenodd;fill:#c9b269"/><path id="Shape_18_copy" data-name="Shape 18 copy" class="cls-2" d="m73.9 81.2-9.051-9.051-1.408.006-29.687 29.69s-2.247 1.861-5.612-1.382l-.006.006c-.026-.026-.045-.05-.07-.076s-.049-.043-.075-.069h.006c-3.274-3.4-1.414-5.646-1.414-5.646l29.7-29.7v-1.417l-9.132-9.132-.061-2.889 17.678-17.678H67.6l9.9 9.9 2.121-2.121c1.768-1.768 5.088 2.26 5.088 2.26l-.011.011c.714.628 3.63 3.364 2.073 4.922l-2.121 2.121 9.812 9.812-.012 2.815-17.675 17.67Z"/><path id="Shape_19_copy" data-name="Shape 19 copy" class="cls-2" d="m54.868 38.519-2.121 2.121L44 49s-1.384 1.433-3.981-1.289c0 0-2.054-2.551-1.019-3.711 1.97-2.208 6.34-7.267 8.09-9.016l2.121-2.121C50.961 31.113 55.72 26.886 58 25c1.629-1.348 3.939.791 3.939.791C64.567 28.638 63 30 63 30Z"/><path id="Shape_19_copy_2" data-name="Shape 19 copy 2" class="cls-2" d="m94.868 79.519-2.121 2.121L84 90s-1.384 1.433-3.981-1.289c0 0-2.055-2.551-1.019-3.711 1.97-2.208 6.34-7.267 8.09-9.016l2.121-2.121C90.961 72.113 95.72 67.886 98 66c1.629-1.348 3.939.791 3.939.791C104.567 69.638 103 71 103 71Z"/></svg>