<svg xmlns="http://www.w3.org/2000/svg" viewBox="0 0 126 126"><defs><style>.cls-2{fill-rule:evenodd}.cls-2{fill:#fff}</style></defs><path d="M4 122v-20l20 20H4Zm118 0v-20l-20 20h20Zm0-118v20L102 4h20ZM4 4v20L24 4H4Z" style="fill-rule:evenodd;fill:#c9b269"/><path class="cls-2" d="m26 102 27-34 10 11 9-1 22 24H26ZM42 76l8-9s-6.476-27.337-6-39h-8s-.8 33.648 6 48ZM47 28s2.761-.479 4-2 10.268-5.183 15 0 13-2 13-2l6-3s3.422-.873 2 7 1 13 1 13 3.666 7.133 1 8c-3.09 1-3.772 2.506-5 3a21.8 21.8 0 0 1-11 1s-4.176-1.945-6-3c-2.554-1.477-8.634.634-10 2s-4.69 4.916-6 2-2.352-7.746-4-26Z"/></svg>