<svg xmlns="http://www.w3.org/2000/svg" width="539" height="684" style="filter:drop-shadow(0 0 5px #fff)"><path fill-rule="evenodd" fill="rgba(255, 255, 255, 0.15)" d="M264 0v89l-14.001 1V46.999h-1v-2h-1L247 43c-2.409-1.21-1.764 1.58-3.001-3H245v-8.001l3.999-27C255.95 4.437 257.815.768 264 0Zm11 0c3.361.221 15.64 5.43 16 7v7.999c1.979 2.25.2 6.474 1 10.001 1.416 5.97 2.39 11.371 1.999 18-1.272.272-4.589 1.262-5 1.999V90L274 89V22l1.999-1.001-.999-4h-1L275 0Zm-40 40-1 51.999c-2.701 1.301-6.356 2.194-10 2l-2.001-1v1l-6 1c-.09-6.489.617-12.144 2.001-17v-10h1v-9h.999v-9h1l1-6L235 40Zm68.999 0c3.147.2 13.791 4.121 14.001 5.999V54c1.985 2.24.27 6.475 1 9.999l2.999 19c.167 3.572.351 6.721 1.001 9h-1.001c-2.521 2.296-12.542 1.101-17 1-1.59-4.332-.999-12.088-1-18V40ZM424 470.999v2h-2.001l-12 13H408l-3.001 4H403L400.999 493h-2L397 496h-2.001l-1 2-2.999 1v.999h-2.001l-1 2-2.999 1v1l-4 1-1 2.001-4.001 1-.999 2-6 2v1h-2.001v1l-6 1.999v1H358v1h-2.001v1l-3.999 1v1L325 530h-4.001v.999h-4v1H312v1h-5v1h-7.001v1h-7c-8.046 2.284-21.215 1-30.999 1h-13.001v-1h-7v-1H235v-1h-5v-1h-6v-1h-4.001V530h-4v-1H212v-1l-12-2v-1h-2.001v-1l-6-1v-1H190v-1.001l-6-1v-1l-4-1v-1h-2v-1h-3.001L174 514h-2l-2.001-2H168v-1h-2.001v-1h-2L162 508h-2.001l-1-2.001-6-2-.999-2h-2v-1h-2.001L146 498h-2v-1l-3-2-1-2h-3.001l-1-2H135l-1-2.001h-2.001l-3.999-5h-2.001l-5-5.999H119l-4.001-5.001-1.999-1v-2L103.999 462v-2l-5-4.001v-2L95 451v-2l-3.001-2v-2L90 444v-2.001l-2.001-1v-2l-2-1V436L84 435l-1-4-2.001-1-17-35.001L63 389h-1v-3h-1v-3h-1.001v-3.001h-1L57 370h-1v-5.001h-1v-3h-1.001V356h-1v-5H52v-8.001c-2.549-9.041-3.871-32.784-1-43V290c2.287-7.86 3.442-18.413 6-26.001V260h.999v-3h1v-2.001h1v-5H61L62 244h1v-2h.999v-3.001h1v-2H66v-3h1v-2h1V229h1l1.999-6.001H72v-2l2-1v-2h.999V216h1v-2H77v-2h1v-2l2-2.001v-2h.999l1-3 2.001-1L85 198l1.999-1v-2h1v-2.001l2.001-1v-1l1.999-1v-2l5-3.999v-2l3.001-2v-2l6-5.001 1-3 8.999-8 5-6H123l5-5.999h2c.999-1.334 2-2.667 3-4.001h2l2.999-4H140l1-2h1.999l1.001-2h2l1-1.999h1.999l1.001-2 3.999-1 1-2 4-1.001 1-2H162l1.999-2h2v-1H168v-1h1.999v-1H172v-1h2V121l6-2v-1h2.999v-1H185v-1l5-1.001v-1h2.999v-1H195v-1h2.999v-1H201v-1h2.999v-1H207v-1h3.999v-1h4V106H219v-1h5v-1h6c27.6-8.068 73.429-4.343 96.999 3.999H331v1h2.999v1h3v1H340v1h2.999v1l6 1v1H351V116h2.999v1h2v1h3v1l6 2v.999h2v1l4 1 1 2 6 2 1.001 2 6 2.001 1 2 4 1v1l2.999 1 1 1.999H396l1 2 2.999 1 3.001 4c33.12 23.786 55.88 56.219 73 96.001v3h.999v2.999h1v3h1v3H480V258h1v3h.999v4.999h1v3h1l1.001 12h1V289h1v5.999h.999c1.313 4.642.109 16.401 0 19-.448 12.204.857 26.186-1.999 36.001v6h-1v4.999h-1.001V366h-1v4h-1v3.999H481v4h-1v3h-1.001V384h-1v3h-1v2.999H476v2h-1L474 398h-1.001l-1 4h-1v2.999H470l-1 4h-1.001v3l-2 1.001v2h-1v2L463 419v1.999l-2.001 1-1 4-1.999 1a5843.73 5843.73 0 0 0-1 4.001l-2.001 1-1.999 5.999-2.001 1v2l-2 1V444L446 446v2l-3.001 2-.999 2.999-6 5V460c-1.334.999-2.667 2-4.001 3v2l-6 4.999v1H424Zm-153.001-344v2l-3.999 1-1.001 2.001-3.999 1v1c-10.9.666-22.002 1.333-33 2-.45 1.801-1.385 1.574-2.001 3.999l-5-1c-.503 2.707-1.068 3.761-2.999 5v1h-4.001l-1 2.001-5.999 2v1l-4.001 1v1h-5l-1 1.999H196l-1 2-4 2c.844 1.135-.127.146.999 1 1.14 1.139.301.399 2 1-1.212 4.522-3 2.289-4.999 5.001v2l-2.001 1-.999 2.999-4.001 1v2l4.001 1v1l5-1v-1l5 1V178l-3.001 1v-1h-6l-.999 2c-1.786 1.529-3.25 2.354-6 3v2.999h.999v1H184v1h1c-.845 1.135.126.146-1 1-1.594 1.485-5.893 1.911-9.001 1-.057-4.556-1.17-4.787-1.999-7.999h-5v-2c-5.335-3.581-3.478-9.02-13.001-10.001l-8.999 6V178l-3.001 2v2L140 184v1.999l-3.001 2v2l-1.999 1v2L133 194v1h-3v1h-3.001l-1 2c-3.857 2.591-3.8.406-3.999 6.999l9.999-3v2c2.781 1.931 1.771 1.611 5 2 1.808-2.091 3.384-1.824 6-3v-1H150v-1c2.225-.279 3.849-.289 7-.999-.358 2.54-.9 1.994-1 1.999v6L152.999 210v2L151 213v1c-3.891 2.149-5.086-2.097-7 3.999h-1.001v3c2.781 1.931 1.771 1.611 5 2V227c-2.474 1.427-3.214 3.667-5 4.999l-2.999 1c-1.593 2-1.41 4.296-4.001 6V243h-4c.219 4.873.624 3.899 0 7.999-3.451.3-4.695 1.623-7.999 0v-1l-3.001-1c-.379-5.649-2.019-9.506-5-14h-2v1h1c-.024 1.415-.62-.362-1 1-1.299 6.926-3.689 3.592-6.999 8.001h-1v3.999c1.759 1.497 1.898 2.703 2 6h-4.001c-1.492-2.852-4.145-5.816-5-8.999h-1c-.226-1.397.375.268 1-1 1.771-.27-.076-.661 2.001-1v1h1v-4h-1v-3.001h-1l-1.001-3c-1.772-.226-2-1-2-1l-4 1v-1h-1V231h-4c-1.192-2.213-2.33-2.88-2.999-6h-2l-1.001 3L80 229v2h-1v1.999h-1l-1 5h-1.001V241h-1v2H74l-1 5.999h-1v3c-9.269 23.776-14.786 69.688-6 99.001l1 9.999h1L69 369h.999v4h1v2.999H72v3h1V382h1v3h.999v2h1L77 392.999h1v2h1V398h1l1.999 6H83v1.999h1v2h1v2h.999v2l2 2.001v2L90 417l1 3.999 1.999 1v2l2.001 1v2L97.999 429v2l2.001 1v2l2.999 2v1.999l2.001 1v2l2 1 1 3.001 3 2v2l8 6.999c6.5 6.5 12.497 14.615 20 20.001h2l3 4 3 1 .999 2H150l1 1.999 2.999 1v1l4.001 1 .999 2L163 491l.999 2 4.001 1 1 2 5.999 2v1h2v.999H179v1l6 2v1h2.999v1H190v1h2.999V507H195v1h3.999c13.373 4.825 28.8 10.81 46.001 10.999v-2L241 514v-1h-2.001l-1-2H236v-1c-3.175-1.865-4.823-.83-6-5.001 1.761-1.377-.349-.216.999-2h1c1.391-1.693 1.659-2.024 2.001-4.999-1.872-.75-4.123-3.308-6-4h-8.001v-1H218l-1-2h-2.001l-1-2.001-5.999-1v-1h-3.001v-1H202v-1h-15.001v-1h-4V483H180v-1h-4.001v-1L169 480v-1a5843.73 5843.73 0 0 0-4.001-1c-3.129-2.475-6.799-6.743-10-10.001L152 466v-2l-3.001-2v-2L146 457.999v-2l-2-1v-2l-2.001-.999c-2.893-4.378-4.07-8.546-4-16 2.763-.724 2.238-.28 3.001-3 2.11-2.258.93-4.754 1.999-8.001H144V419h1l6-5 1.999-3.001h2v-1H158v-1h3v-1h1v1l10-2 4.999-7.999H179v-1c4.343-1.878 5.38 1.422 7-4.001l4-1 1 2h1.999v1L197 397v1l16.999-1H218v1l22 1 1 3c1.862 1.823.207.332.999 2.999h1c.526 2.876-2.428 2.946-2.999 4v2l2.999 2.001v1l9.001 2v1h2.999v1l3.001 1v1.999l6 2v1l5.999 1v1l3.001-1c.26-3.336.525-4.526 1-6.999 3.97-1.643 1.795-1.899 6.999-2 2.531 2.405 5.892.841 10.001 2v1h12.999v-1h2v-1H312v-1c1.621-.323 1.834.969 2 1l5-1c3.197-7.006 5.711-12.552 4-22.001l-6.001 2V397H313v1l-6-1v1l-6 2v-1c-3.377-.701-3.853-2.169-7.001-3.001l-1-7.999 3.001-1v-1h1.999v-1h2l2.001-3h2.999v-1.001H307v-1h2.999l1-2 4-1v-1l5 1v1h1v-1c3.231-.636 6.322.303 8.001 1v-1c1.35-.675 1.306-1.526 2-2 3.52-2.085 4.471-1.193 5-5.999-1.2-.72-4.065-3.118-6-4.001l-5-1v-1c-1.239-.604-3.335.18-4.001-1V356h1v-3h-1c-1.183 1.372-1.825.97-2.999 2l-1.001 2h-2v.999l-1.999 1v3h1.999v3H314V366h-4.001c-2.175-4.385-2.36-5.136-8.999-5.001l-2.001 3h-1V366H297l-1 7.999h-1v2h-1.001c-.729 3.605 3.181 5.385 3.001 7.001h-1c-3.853 5.462-5.451.306-11 2v1h-3.001v1L279 388c2.304 3.836 4.844 3.486 5 10-1.139 1.139-.399.3-1.001 2-1.527.577-1.64.762-3.999 1l-2.001-3h-1v-2.001l-1.999-1v-2h-1L271.999 389h-1v-5h-1l-5-6.001H263L258 372h-2v-2h-2.001c-.607-2.394-.317-1.859-1.999-3v-1h-1v1c-1.76 1.496-1.899 2.702-2.001 6 2.45 1.566.653.813 2.001 2.999h1v2h1c1.157 1.5 1.424 1.752 1.999 4.001 2.142.36 9.32 3.614 10 5v2.999c-3.037 2.551-.427 1.851-1.999 4h-1c-1.14 1.139-.004.399-2.001 1v-2c-2.502-1.625-2.269-3.589-3.999-5.999l-3-2v-1h-2l-7.001-8.001V372h-1v-1c-1.679.761-11.272 3.929-13.999 2.999V373l-5-1c-1.553 2.451-1.139.612-3.001 1.999l-1 2c-2.341 2.22-5.443 5.114-9 6.001-1.335 7.227-3.562 4.97-7 8.999l-12-1c-2.023-3.596-4.579-5.351-9-6.999.707-1.868.994-3.11 1.001-7.001h2.999L186 371l1.999-1 1.001-8.001 3.999 1v1h5v1H200V366c3.258 1.64 6.286 1.877 10.999 2 1.339-2.523 1.99-3.505 2.001-8.001h-1V354h-1.001c-1.351-1.37-2.277-2.287-2.999-5.001 6.846.931 12.843-1.26 17-4l.999-2L230 342l.999-2h2l2.001-3c2.114-1.344 6.156-.298 7.999-2 1.683-1.819 1.981-7.561 1-11 2.781-1.094 1.771-1.611 5-2 .281 5.55-1.183 6.393-1.999 9.999l1.999 1v1h5V335c1.891.612 3.691 1.79 6 1v-1H262v-1.001h2v-1c1.17-.099 2.605 1.831 5 1v-1l4-1v-3h1v-1h-1V323l7-2c-.32-2.315-1.69-3.86-2.001-7.001l9-2 1-2.999c-1.719-.65-3.14-.53-6-1-1.491 1.88-5.371 3.243-6.999 2h-2c-.434-2.302-2.331-7.529-1.001-11.001H273v-2l2-1c2.6-2.205 2.663-2.839 2.999-6.999-1.719-.65-3.14-.53-6-1-.645 1.678-1.027 6.633-2 7.999-1.666 1-3.333 2.001-5 3v2H264c-1.818 4.851 1.582 8.338 1.999 12H264c-.191 4.889-1.694 6.121-2 11.001l-7.001 4.999L253 322h-1c-1.452-3.14.844-6.226-2.001-9.001-1.677 1.971-5.041 3.385-8 4-2.245-4.26-2.086-6.268-1.999-12.999h1v-3.001h.999c1.731-2.027 2.177-.827 4.001-2l1-2h1.999l6-4.999v-2l2.001-1 1-4.001 1.999-1 1-4L264 278v-2h.999l4.001-5.001h4v-1c1.426-.839 1.709-.729 3.999-1v-1h1v1l4 1v1l11 1.001v1l5 1c.606 1.604.882 2.374 1 5-1.002.493-1.835 1.915-1.999 1.999h-3.001v1l-5-1v1c2.271 1.292 4.355 5.34 5 8.001 2.449.558 2.211 1.42 4 2v-1h1c.642-1.129.551-2.006-1-2v-1h2c1.14-1.139.301-.399 2.001-1.001v-7c2.995-.776 2.63-.616 2.999-3.999-1.587-1.354-1.736-2.17-1.999-5.001 1.134-.844.145.127.999-1 2.781 1.931 1.771 1.611 5 2.001l6-9c3.335-2.4 5.647-1.18 7-6-1.718-1.127-1.355-.633-2-3.001 1.135-.844.146.127 1-1 3.927.111 7.145-.074 9.001-2 1.138-1.139.398-.003 1-2-6.289-1.26-9.402-6.062-12-11 1.134-.844.145.127.999-1l4.001 2 1 2.001h1.999v1H329l1 2c3.366 2.164 4.727.133 6 4.999h.999v5h2c.707-1.867.994-3.109 1.001-6.999-2.27-1.286-2.637-1.629-3.001-5 1.139-1.14.399-.004 1-2.001L331 241v-1.001l-6-2c.46-5.149 3.2-5.677 5-8.999-3.358-1.206-5.59-1.206-7-5.001 1.218-.899 2.229-2.59 2.999-4-5.383-.499-6.262-3.347-6-9.999H319v-6.001c-1.749-.737-3.838-1.622-5-3l5-1.999v-2c.936-2.061 1.566-2.304 4-3 1.62 2.833 5.187 5.415 8 6.999V199c-1.85-1.895-.029-.516-1-3-1.53-4.3.331-6.079 1-11.001-2.716-1.164-4.18-1.779-5.001-4.999 4.582-1.566 6.649-.18 9.001-5.001-3.656-.858-5.258-3.265-6-6.999-3.543-.318-3.49-1.314-7.001-2-.653-1.241-1.609-1.404-2-2v-2.001l-1.999-1v-7h-1.001L313 149c1.759-1.497 1.898-2.703 1.999-6.001-7.391-.004-7.659-3.048-12.999-5V137l-3.001.999c-1.811-.387-2.291-2.602-2.999-2.999l-5-1-6-8.001c-2.19-2.561-3.477 1.136-5-4l2.999-.999v-1c1.397-.227-.268.374 1.001 1 2.506.58 5.816 3.117 7 4.999 4.33-2.203 3.885-1.899 8.999-1v-2h-2V120H318v1h1.999l2 2.999h5v1c1.139 1.14.399.301 1 2l-6 1v1H329v1h2.999V134c6 .436 12.104 2.734 17 3.999v2c4.481 1.216 3.748 2.925 6 6L358 148v1h1.999l1 2 11 3.999 1 2H375c1.127.634 6.165 4.634 7.999 4v-1h1v-3H385c.44-.153-3.468-4.1-4-5.999 2.436-.18 6.193-1.037 10-1l-1-3c-3.269.114-8.299.568-10-1.001 1.975-1.128 2.337-1.416 2.999-4-2.013-1.064-4.077-2.109-6-4H375L374 136l-4-1-1-2-6-2v-1.001h-2.001v-1h-2v-1l-12.999 1-16-2v-2c3.12-.228 4.731-1.049 6.999-2 .945-1.801 1.385-1.574 2-3.999l-7-1v-1H330v-1l-5-1.001v-1h-2v-1l-12.001-1v-1h-5v-1H302v-1h-8.001v-1H286v-1c-2.174-.478-3.001 1-3.001 1H268c1.305 4.239.478 4.803-3.001 7H263L260.999 118H262v1c.689.388 8.602.497 9.999 1-.844 1.134.127.145-1 1v.999l-10 1v1l10 3Zm-52.999 33c-.585-3.143-1.622-4.461-2.001-7.999 1.315-.81 1.178-.705 2.001-2 2.9.573.865-.12 1.999 1 3.249.746 5.215 2.784 6 5.999H225c-1.689 2.13-3.165 2.846-7 3Zm-2.001-4v3c-1.289.641-1.399 1.615-2 2-3.359 2.157-4.741.14-5.999 5.001h.999c1.14 1.138.301.398 2 1l-1 2.999c-3.111-.56-5.778-2.36-7.999-2.999-3.812-1.097-4.354 1.657-9.001 0 .845-1.135-.126-.146 1-1l5-9.001H201v-1c2.11-1.163 2.23-.011 3.999-2H207l1 2c1.854.671 2.999-1 2.999-1l5 1Zm11 6c3.45.93 1.867 1.3 4 3.001-.573 2.9.12.865-.999 2v1h-2c-1.769-3.242-2.396-1.89-1.001-6.001Zm-11 9V166c2.551-1.391 3.104-2.582 7.001-3 .577 1.527.762 1.64 1 4-2.06 1.599-3.82 3.474-8.001 3.999Zm9.001-1 3 1c-.574 2.901.119.866-1.001 2v1c-2.009-.573-.865.12-1.999-1h-1v-1l1-2Zm-19 2 1 3h-6c-1.14-1.138-.004-.398-2.001-1v-1c1.282-.589 2.141-.859 3.001-2l4 1Zm6 5c.825-3.2 1.178-2.029 5-3 .844 1.135-.127.146 1 1-.845 1.135.126.146-1 1-2.23 2.425-1.883 1.395-5 1ZM198.999 178h4l1 3-2.999 1v-1c-1.719-1.127-1.356-.633-2.001-3ZM212 182c-1.039 4.16-3.441 4.841-4 9.999l-3.001 1v-6H206V184h1v-1c1.604-.606 2.374-.882 5-1Zm-19.001 3.999v2l5 1v2h-5v1c1.362 1.166 1.529 1.825 2.001 4.001-3.448 2.61-2.889 3.87-5 5.999l-4 3-1 2h-2.001v1h-2v1L178 211c-2.63 4.313.745 6.447-7.001 6.999.699-2.834 1.784-2.887 3.001-4.999h-2v-1h-4c-1.035 1.298-1.1.991-3.001 2-1.002 1.1-.714 1.965-1.999 2.999-3.837-5.147-4.332 2.391-5-4.999l5-6.001 2.999-1V198H167v1h1l1 4.999h9c2.944-4.189 9.188-5.799 9.999-12h-1l1-5c3.367-1.839 4.71-3.723 10-3.999.845 1.134-.126.145 1 1v.999H195c-1.14 1.139-.004.399-2.001 1Zm36.001 7v-4c2.762.724 2.237.28 2.999 3 2.118 1.867-.085.763 1 3.001H234l1 3h-1v2c-5.418.39-8.124-1.57-11-4l-1.001-2-6 1v-1c-3.603-1.675-4.787-1.834-5-7.001 1.528-.577 1.641-.762 4-1 1.34 2.411 1.637 1.879 5 2l1-3.999c3.7-.744 5.361-1.37 9.001 0-.845 1.134.126.145-1 .999-2.045 2.42-3.466 1.635-4 6 1.801.945 1.574 1.385 4 2Zm-59.001-7-.999 3h-1v2h-1c-1.35 1.482-.491 1.373-3.001 2-.062-3.577.129-5.714 1-8l5 1ZM179 200h-3.001v-1c-1.134-.845-.145.126-1-1 1.135-.845.146.126 1-1 2.901.573.866-.12 2.001 1 1.138 1.139.398.3 1 2Zm55 7.999 7 1c.886 1.554 1.466 2.951 2.999 3.001l-1 3h-1v1.999H241c-.617 1.943.999 3 .999 3l-.999 3h2.999v-1c.951-1.843 1.001 2 1.001 2L238.999 225 234 231h-1.001l-1 2.999-2.999 2v3h-1L226.999 242H224v1c-1.709.539-3.642-1.27-4.001-1l-.999 1v1h.999l-.999 3.999h-2l-1.001 2-5-1-1 5c-2.227.32-5.142 1.325-7.999 0l-1-2h-2.001v-1l-12 3-1.999-4-9.001 3v1h-6v1H168v1c-1.394.897-1.744.688-4.001 1.001v-11c3.461-1.857 2.965-4.134 5.001-7.001l7.999-7L178 230h2v-1h1.999v-1H186v1c2.308.426 2.652-.557 4-1v-3l5 1v-1h1v-4.001l1.999-1v-1l6-2 7-8v-6l1.001-1 2.999 1c.597-.184 1.317-3.637 4.001-2.999l.999 1.999 6-1v1H228v1h2.999v1l3.001 1v3ZM303.999 228c3.201.825 2.903 1.178 3.001 4.999h-1.001c-.679 1.724-.288 10.161-1 12.001-2.009-.574-.865.119-1.999-1h-1v-5.001c-1.745-2.266 1.254-7.389 1.999-10.999Zm0 19H307v.999c1.619 1.281 3.396 3.631 3.999 6h-5c-1.642-3.097-1.898-1.795-2-6.999Zm-189 7.999H119c.844 1.135-.127.146.999 1 .397 6.107 1.941 6.915-.999 12l-3.001 1-1-14Zm87.001 14c3.86.358 3.146.697 5 2V272h2.999v1l4 1c.595 3.715.581 2.289 0 5.999h-10c-1.816-3.121-2.819-3.387-2.999-9 1.138-1.139.398-.003 1-2ZM36.999 278c-.23 13.459-2 24.575-1.999 38.999v15h.999v12h1V351H38v6h1v4.999h1V367h1v4h.999v4.999h1l5 18H49v2h1L51 402h1v2h.999l1 4.999H55L57 415h.999v2h1v2h1v1.999H61v2h1v2l1.999 2V429L66 430l2 6h1l.999 2.999 2.001 1L73 444l2.999 2v2L78 449v2l3.999 2.999v2l2.001 1v2L87.999 462v2L95 469.999 97.999 476H100l13.999 15h2l3.001 4 3 1v2c2.62.645 3.237 1.594 4.999 2.999v1l4 1 1 2H134l1 2.001h1.999v1l3.001 1 1 2h1.999l1.001 2 3 1v.999l5.999 2 1 2H156l2 2h1.999V522H162v1h1.999v1h2v1l6.001 2v1l4.999 1v1H179v.999h2.999v1H184v1h2.999v1H190v1h2.999v1H196v1h2.999V538h4v1H206v1h3.999l8.001 3c-.845 1.134.126.145-1 1-2.77 3.232-7.614 3.261-12.001 4.999v1l-6 1v1l-8.999-2v-1h-3.001v-1H184v-1l-4-.999v-1h-3.001v-1h-2v-1a7365.25 7365.25 0 0 0-5-1v-1l-6-2v-1H162v-1.001h-2.001v-1l-6-2-1-2H151L150 530h-2.001v-1H146v-1h-2l-2.001-2H140l-1-2h-2.001l-1-2H134l-2.001-3.001H130l-2-3h-2.001L123 512h-2.001l-1-2-2.999-1-3.001-4.001H112L105 497h-2.001l-5-6L91 484.999 90 482l-5-4v-2l-4.001-3.001v-2l-2.999-2V467l-3.001-2v-2c-1.333-1-2.666-2.001-4-3v-2.001l-1.999-1v-2l-3-2V451l-2.001-1-.999-3h-1a5843.73 5843.73 0 0 1-1-4.001l-2.001-1v-2l-1.999-2V436h-1v-2h-1v-2h-1.001v-2h-1v-2H52l-2-6.001h-1L47.999 417h-1L46 413h-1v-3.001h-1l-1.001-4h-1V403H41v-2h-1v-4h-1v-2.001h-1v-4h-1.001V388h-1L35 380.999h-1v-4h-1L30 355c-2.795-9.749-5.24-37.429-2-49v-13h1v-6.001h1v-6c.474-.828 5.556-2.682 6.999-2.999Zm464 1c3.337.26 4.527.525 7.001.999.439 2.255.224 6.192 1 9.001h.999v12.999h1v12h1v18h-1V336h-1c-.073.426 1.797 7.241 1 9.999h-1l-.999 15h-1L506.999 369h-1c-.261 1.185 1.773 1.733 1 4h-1l-1 3.999h-1L503 388h-1v3.999h-1.001v2h-1l-1 6.001H498v4h-1v1.999h-1.001l-1 6h-1a5843.73 5843.73 0 0 1-1 4.001H492v3h-1l-2.001 5.999h-1v2H487V429h-1v2h-1v2l-2.001 2v1.999l-1.999 1-1 4-2.001 1a5843.73 5843.73 0 0 1-1 4.001L475 448l-1 4-2.001.999v2l-1.999 1v2l-2.001 1V461l-2 1v2L464 465v1l-2.001 1v1.999l-3.999 3v2L453 478v2l-2.001 1-3.999 4.999h-2.001l-2 2v2l-10 9.001-4 4.999h-2l-5 6.001H420l-1 2h-2.001l-2 2.999H413l-1.001 2h-2l-1.999 3h-2.001l-1 2.001H403l-2.001 3h-2l-1 2-4 1-1 2-4 .999-1 2H386l-2.001 2h-2v1H380v1h-2.001V538h-2v1H374l-1.001 2h-2v1H368v1h-2.001v1L362 545v1l-30.001 10h-4v1H324v1h-4.001v1h-4v1l-12 1v1H297v.999h-10.001v1h-38v1H240v1h-7.001v1l-9.999 1V569l-7.001 1v1H213v1l-7 1v1h-2.001v1l-5 1v1l-6 1.999v1H191v1h-2v1l-6.001 2-1 2.001H180v1l-3.001 1-1 2H174l-1 2-3.001 1-5 5.999H163L162 601a9723.263 9723.263 0 0 0-5 4v2l-9.001 7.999V617L146 618v1c-2.007 1.283-6.41.817-8.001-1v-3.001c2.428-2.067 2.173-5.23 4-7.999l3.001-2v-2l9.999-9.001V592l6.001-5 1-2h1.999l2-3.001H168l1.999-3H172l2-2.999h1.999l2.001-3 3.999-1 1-2H185l1.999-2.001H189v-1h2v-1h1.999v-1H195v-1h2v-1l5.999-1.999v-1H206v-1h2v-1l9-2v-1l8.999-1v-1.001H229v-1h3.999v-1h5v-1H245v-1h7v-1c11.998-.333 24.1-.666 35.999-1V546h11v-1H307v-1h7v-1h5v-1l7.999-1v-1H331v-1l6.999-1v-1.001H341v-1h3.999v-1H347v-1h2.999v-1l5-1v-1H357V530h2.999c58.587-26.228 100.83-69.39 127.001-128 3.332-10 6.666-20.001 10-30v-5c2.74-6.703 3.28-16.126 5-23.001V335h1v-17.001h.999c-.999-12.899-2-26.001-3-38.999Zm-281 31v2.999h1v2c.397.79 2.178.388 2.001 2h-1.001c-.866 1.271-1.724 1.383-2.999 2.001l.999 4h1v3h1v1.999H223v5h1l1 6.001c-1.409.736-3.024 1.797-4.001 3-3.537-.637-8.151-1.009-12.999-1v-2l5-1v-1h-1c-1.14-1.139-.004-.399-2.001-1 .747-3.249 2.785-5.215 6-6.001V325l-2-1c-1.39-3.389.594-8.764 1-11.001 2.128-1.212 2.177-2.252 5-2.999ZM469 312.999V322h-1.001l-1 4h-1v4.999h1l-1 17h-1V353c-.466 1.525-3.509 10.24-3 11.999H463l1 4.001h.999c1.236 3.453-1.013 7.676 1 9.999v-1c2.565-2.316 1.703-4.461 3.001-7.999h1v-5.001h.999v-3h1V357c3.222-10.149 6.351-32.335 4.001-44.001-3.844-.601-2.75-.352-7 0Zm-383.001 203c-2.269-.683-3.274-1.112-4-3.999H80v-2h-2v-2h-2.001l-6-8.001-5-3.999-1-3-4-3.001v-2l-3.999-3V483l-3.001-2v-2L50 477v-2l-3.001-2.001v-2l-1.999-1v-2L42.999 467l-1-3H41l-1-4-2-1.001v-2h-1.001v-2l-1.999-1V452h-1v-2l-2.001-2v-2L30 445v-2.001h-1v-2h-1v-3h-1V436h-1.001l-1-4H24v-3h-1v-2.001h-1l-1.001-4h-1V420h-1v-2H18v-3h-1v-2h-1v-3.001h-1.001v-3h-1V404H13v-4C4.712 376.851.332 349.182 0 317.999l7.999-4v16c2.622 3.195-.351 10.323 1 15H10V354h1v4.999h1v6h1V370c1.647 5.236 3.277 11.962 5 17v3.999h.999l1 6.001h1v2H22v3h1v2h1l.999 5.999h1L27 414h1v3h1v2h1v2.999h.999L33 428h1v2h1v2h.999L38 437.999l2 1 1 4L42.999 444 44 448l2 1 .999 3.999 2.001 1v2h1l1 3L52.999 460v2L56 464v2l1.999 1v1.999c1.334 1 2.667 2.001 4.001 3v2L64.999 476v2c1.334.999 2.667 2 4.001 3v2l5.999 4.999v2L85 499l5 5.999h1.999l7 8.001H101l1 1.999h.999l2.001 3h2l1.999 3L112 522l1 2h1.999v1l3.001 1 1 2h1.999l2.001 2.999h1.999l2 3H129l1 2 4 1 1 2.001 6 2 .999 2L179 560c-.845 1.134.126.145-1 1-2.028 3.358-6.545 5.11-9 8-6.45-.219-9.693-3.69-14.001-6.001l-6-1.999v-1H147v-1h-2v-1h-2.001L141 556h-2l-1.001-2-6-2.001-1-2-6-2L124 546a5843.73 5843.73 0 0 0-4.001-1l-.999-2h-2l-1.001-2-2.999-1-3.001-4.001H108l-2-3h-2.001L101 529h-2.001L96 525h-2c-1-1.334-2.001-2.667-3-4.001-2.726-1.829-3.8-1.128-5.001-5Zm445.001-201c4.864.216 3.384 1.681 6.999 2 .263 10.592.297 22.401-1.999 30L534.999 367h-1l-2 10.999H531v2h-1l1 6.001h-1v2h-1.001l-1 9h-1l-.999 4h-1v3h-1.001l-1 9h-1v2h-1l-.999 5.999h-1l-2.001 6h-1V429H515v2h-1l-1 4h-1.001v2.999l-2 1v3H509V444h-1v2h-1.001v2l-2 2v2l-1.999.999-1 4-2.001 1V460L498 461l-1 4-2.001 1v1.999h-1l-1 3-1.999 1v2L488.999 475l-1 3-2.999 2v2l-3.001 1.999v2c-1.333 1-2.666 2.001-4 3V491l-5 4v2L459 510c-3.273 3.272-5.4 8.667-11 9.999V522h-2l-6.001 7h-2L435 532.999l-3.001 1-.999 2h-2.001l-1 2.001h-2v1l-3 1-1 2H420l-2 3h-2.001l-1 1.999H413l-1.001 2-2.999 1v1l-4.001 1-1 2.001H402v1h-2.001l-2 2H396l-1.001 2h-2v1H390l-1.001 2H386v.999h-2.001v1l-6 2v1H375v1L370.999 569v1H369v1h-3.001v1L362 573v1h-3.001v1H357v1l-10 1.999v1h-3.001v1l-7 1v1h-4v1h-5v1H324V585h-5v1h-5v1h-5.001v1H302v1h-8.001v1h-12c-3.697.32-10.379 2.439-16 1v-1H247v-1h-9.001v-1h-7c-4.693-1.379-11.278-3.065-16-4.001.724-2.762.28-2.237 3.001-3 2.272-2.009 4.749-.219 7.999-2 4.833-1.602 11.863-2.53 17-3.999H257v-1h35v-1h10v-1h8.999v-1h6v-1H323v-1h3.999v-1.001h5L369 556v-1l3.999-1v-1.001h3v-1l6-2v-1h2v-1H386v-1h1.999V546H390v-1h2v-1h1.999l2.001-2h1.999l1-2 6-2 1-2.001 4-1v-1l3.001-1 1-2h1.999L418 528h2l.999-2h2l2.001-3h1.999l3.001-4.001h1.999l2-3H436l2.999-3.999H441l9.999-11.001H453l.999-1.999 3.001-2v-2l8.999-8.001v-2l6-4.999v-2c1.334-1 2.667-2.001 4.001-3v-2.001l2.999-2v-2l3-1.999v-2l2-1v-2H485c1.578-1.698.825-1.543 3.999-2 .194-5.342 2.172-5.651 4-9v-2h1v-2l2-1 2.001-6.001 1.999-1L502 433h1v-2h.999l2-6.001h1v-3H508V420h1l.999-4h1v-3h1v-2.001H513v-3h1v-2h1V403h.999v-2h1l1-6.001H519l1.999-8.999 2-1 1-13c4.663-15.479 6.61-37.734 7.001-57.001Zm-323 16h-10.001v-1c4.7-4.257 2.811-9.102 12-9.999.945 1.801 1.385 1.574 2.001 4-2.581 1.498-3.372 3.57-4 6.999ZM349.999 339c-.279 4.151-6.71 11.432-5 14 1.451 4.157 3.697 5.71 7.001 6.999v1c1.247.708 4.35.874 5 2V370l1.999 1v2h1c1.55 1.684.827 1.602 4.001 1.999l7.999-3.999v-3c-3.056-2.749-2.21-8.13-1-12H370c-1.59-2.419-.717-.676-3.001-2v-1h-2v-1H358v-1a5843.73 5843.73 0 0 0-4.001-1c.399-4.265 2.681-4.521 3.001-8 2.393-.608 1.858-.318 2.999-2H358l-1-2h-4v1h-3.001Zm84 39.999v-4l-2.999 1v1h-2.001v1h-7l-1 2H419l-9.001 10H408l-2.001 3c-3.069 2.568-7.894.41-12 2v1H392L388.999 400c-2.522 1.641-6.898 1.899-11 2-1.606-2.63-3.801-3.839-7.999-4-1.44 2.465-3.139 2.787-4.001 6h1l3.001 3.999h4v1h1.999v1H381l.999 2c6.307 2.294 10.267-6.847 11-10.999l5 1v1H407c-.224 5.353-1.863 7.45-2.001 13-1.801.944-1.574 1.384-4 2-.392 2.19-.669 1.895-1 2v4.999L392 432l-1 4-5 3.999-1 2h-2.001L380 446h-2.001L375 450h-2.001L370 453.999h-2v1c-1.235.957-1.35.732-3.001 2-2.009-.573-.865.12-1.999-1L358.999 449H357l-1.001-2-3.999-1-1-2-4-1.001-5-6.999-17-13.001c.577-1.527.762-1.64.999-3.999L323 420v2.999c-3.543-.317-3.49-1.313-7.001-2v1c3.864 2.252 3.583 4.593 6 8.001L336 442.999l1.999 6.001 3.001 1v1h1.999l1 1.999c2.354 1.689 1.789-1.066 3.001 3l4 1v1h7.999l1 2.001c2.203 1.843 3.756 1.891 8.001 2 1.74-2.017 2.175-.828 3.999-2l1-2.001H375v-1h1.999l1-2H380l1-2 2.999-.999v-1c1.952-1.532 2.449-1.761 6.001-2l-2.001 8.999h-1V461L385 462l-1.001 4-2.999 1.999v2l-2 1v2L371.999 479 370 482h-2l-7.001 7.999h-2L358 492c-3.047 2.883-5.85 6.138-10.001 7.999v3c8.241.201 11.835-3.209 17-5.999l4.001-1 1-2 4-1 1-2h1.999v-1.001l3.001-1 1-2h1.999l1-2 3-1V483l4.001-1 1-2 2.999-1 2.001-3h1.999l2-3.001 3-1v-1c2.573-2.158 4.382-4.639 8-5.999v-2H414c3.332-4 6.666-8.001 10-12l2.999-2v-2c1.334-1 2.667-2.001 4.001-3v-2.001l2.999-2v-2L437 436v-2l2.999-2v-2l2.001-1v-2.001l2.999-2v-2l2.001-1 1-3.999 1.999-1v-2l2.001-2v-2.001h1v-2h.999L457 400h1c1.549-3.18 2.553-5.89 2.999-10.001-1.209-.632-1.456-1.656-1.999-1.999h-2v-1h-2.001v-1H453l-7-6.001v-2l-2.001-1v-2h-1L441 372h-1.001c-.679 4.318-1.737 6.152-6 6.999Zm-197 7.001H240v3.999l-3.001 1V386ZM390 610.999l-4-1-3.001-3.999-8.999-8.001-2.001-3H370L365.999 590H364l-3.001-4 3.001-1c1.495-1.635 4.978-1.54 6.999-3.001v1c3.601.923 5.477 3.886 8.001 6.001v1h2l4 4.999 1.999 1v2l6 5.001v2l3.001 2v2l1.999.999v2h1v2h1l1 3.001h-1c-1.243 1.435-2.77 1.555-3.999 3-2.01-.574-.866.119-2.001-1L391 617v-2.001l-2.001-1 1.001-3ZM297 651c-.712 2.477-.503 1.626-2 3v1h-2.001l-.999 1.999c-4.161 2.794-9.5 3.506-11.001 9.001l6 18H285l-15.001-11.001c-2.012-.336-1.23.478-1.999 1-6.05 1.571-9.247 8.418-16 10.001.658-7.867 4.642-12.503 5-21l-3.001-1.001-.999-2h-2l-2.001-3H247L246 655h-2.001v-1L241 653v-2h21l7-20.001c1.138 1.14.398.301.999 2.001h1l1 6H273v2.999h1v3h1V648h.999v2c1.442 1.766 17.141 1.88 21.001 1Zm-94.001 1c5.965-.072 12.462.149 17 1v1H219c-1.439 2.214-9.408 7.59-12 9 2.67 5.259 4.608 10.393 5 17-6.46-1.815-8.237-8.431-17-9-1.74 2.963-8.119 7.167-12.001 8 1.601-5.704 3.585-9.852 4-17.001-4.326-2.303-7.405-5.827-12-7.999v-1h7c1.594-1.485 5.893-1.092 9.001-1 .509-1.015 1.889-1.792 1.999-2L197 636c1.138 1.139.398.3.999 2h1l1.001 5.999h1V648h1l.999 4Zm125 25.999c.243-6.359 2.739-9.192 3.001-16-3.272-1.439-10.286-6.092-12-8.999 2.531-.897 14.685-.223 16-1l6-16h1c.183 2.265 4.114 15.482 5 16l16 1v1c-2.046 1.37-11.234 7.409-12 9v3l3.999 11.999H353c-2.892-3.39-8.165-4.563-11-7.999-5.719 1.386-8.316 6.477-14.001 7.999ZM152 654c-1.888 6.599-6.2 2.282-8 11 1.604 1.576 2.74 6.6 3 8.999h-1c-.623-.787-9.284-7.089-10.001-6.999v1c-4.111 1.392-5.573 3.935-10 4.999l3.001-11h-1v-2l-2.001-2H124v-1h-2c-.545-.348-.82-1.36-2.001-1.999v-1h11c.666-1.196 2.905-2.815 3.001-3l1.999-9.001c1.139 1.14.399.301 1 2h1L139 651h1c2.912 3.861 5.409 3.159 12 3Zm264.999 0v2l-2.999.999-4.001 5H409V664l2.999 8.999c-2.246-.528-2.528-.845-3.999-1.999v-1h-2.001l-1-2H403v-1h-1v1h-3.001l-1 2H396v1c-1.496 1.17-1.771 1.387-4 1.999.83-4.461 2.683-6.761 2.999-12-3.807-.449-5.259-4.204-8.999-5.999v-1h10c1.139-1.139.3-.399 1.999-1L402 641.999h1c.91 2.551 2.1 10.402 2.999 11.001H408c1.593 1.484 5.892 1.91 8.999 1Zm-318 0c-1.037 3.604-3.118 3.467-4.999 5.999h-1.001V666H94v3l-8.001-4v1L80 668v-9.001c-3.018-.599-3.817-1.795-6-2.999 1.139-1.139.3-.399 1.999-1v-1H83v-1c1.438-1.425 2.545-5.583 2.999-8.001 1.139 1.14.399.301 1 2.001h1L89 653c.458.647 2.79.836 2.999 2 2.477-.444 3.671-.19 7-1Zm352-6H453l.999 5c2.664 1.412 4.221 2.3 9.001 2v1.999c-4.77.883-5.263 2.954-5 9.001 1.138 1.139.398.3 1 2-3.67-.2-3.628-2.673-9.001-3-1.264 1.572-2.66 2.426-5 3v-1H446l1-7.001-6-3.999v-1c3.577.62 5.714-.129 7.999-1 .979-2.211 1.663-2.819 2-6Z"/></svg>