<svg id="HD2-TT" xmlns="http://www.w3.org/2000/svg" viewBox="0 0 126 126"><defs><style>.cls-2{fill-rule:evenodd}.cls-2{fill:#fff}</style></defs><path id="Rectangle_3_copy_3" data-name="Rectangle 3 copy 3" d="M-9 140v-39l9 2v23h126v-22.692l4 1.692 3 35H-9Zm130-19H5v-20.045L22 94l20 10 21-10 21 10 20-10 17 7.192V121Z" style="fill-rule:evenodd;fill:#679552"/><path class="cls-2" d="m33 94 9 5 21-10 21 10 9-5-8-11V43h-7v31H68V64l-3-3V51h-4v10l-3 3v10H48V43h-7v40Z"/><path class="cls-2" d="M72 27 57 47l5-16H50l15-21-5 17h12Z"/></svg>